<svg version="1.1" id="Layer_1" xmlns="http://www.w3.org/2000/svg" xmlns:xlink="http://www.w3.org/1999/xlink" x="0px" y="0px"
	 width="100%" viewBox="0 0 244 367" enable-background="new 0 0 244 367" xml:space="preserve">
<path fill="#000000" opacity="1.000000" stroke="none" 
	d="
M1.000000,138.000000 
	C1.000000,92.000015 1.000000,46.500027 1.000000,1.000031 
	C82.333298,1.000020 163.666595,1.000020 244.999908,1.000010 
	C244.999939,123.333260 244.999939,245.666519 244.999969,367.999817 
	C163.666763,367.999878 82.333534,367.999878 1.000148,367.999939 
	C1.000000,291.500000 1.000000,215.000000 1.000000,138.000000 
M182.430359,235.947754 
	C182.264023,235.986877 182.097702,236.026001 181.264725,236.028214 
	C180.176132,237.345901 179.087555,238.663605 177.299606,239.787384 
	C176.542694,240.887146 175.785767,241.986908 174.427078,243.291306 
	C173.942551,244.186691 173.458023,245.082062 172.240753,245.983292 
	C169.893250,248.654083 167.545746,251.324890 164.971451,254.651794 
	C163.003632,257.139557 161.035812,259.627289 158.408676,262.407654 
	C156.382614,264.060547 154.169037,266.403168 157.119247,268.257141 
	C159.530365,269.772339 162.016876,275.005829 165.913040,270.502838 
	C170.731750,264.933563 175.327927,259.152313 179.714783,253.236145 
	C182.342163,249.692810 184.385635,245.716507 186.168716,240.979599 
	C186.042496,240.639267 185.916290,240.298935 186.510010,240.168228 
	C189.415787,239.252609 189.551941,238.754852 187.725037,234.215210 
	C186.915100,233.852371 186.105164,233.489532 185.295242,233.126694 
	C185.462021,233.685974 185.628784,234.245270 185.440353,234.868378 
	C185.440353,234.868378 185.084137,234.926361 184.529175,234.751358 
	C183.989868,235.149902 183.450546,235.548431 182.983215,235.998138 
	C182.983215,235.998138 182.942200,235.919907 182.430359,235.947754 
M134.969025,37.460842 
	C134.669785,37.283863 134.370529,37.106884 134.073242,36.517651 
	C134.073242,36.517651 134.116287,36.107647 134.896210,35.988182 
	C135.280167,35.683014 135.664124,35.377850 136.048080,35.072681 
	C135.401306,35.014999 134.754517,34.957314 134.050583,34.177273 
	C134.014252,33.455540 133.977936,32.733810 134.615738,31.995640 
	C138.976349,32.737209 137.670166,28.807861 138.546555,26.901640 
	C139.080978,25.739256 138.480392,24.015995 138.215256,22.576773 
	C138.183731,22.405571 137.053268,22.408815 136.429916,22.379406 
	C133.515259,22.241890 130.599792,22.121269 127.815491,21.305323 
	C127.129341,19.814819 126.443184,18.324316 125.979073,16.034683 
	C124.735214,10.261059 129.698654,9.290522 133.381775,7.329311 
	C132.934387,6.872354 132.487000,6.415397 132.039612,5.958441 
	C129.362930,8.380239 126.686256,10.802036 123.204659,13.261457 
	C122.935440,14.160868 122.666229,15.060279 121.879265,15.508389 
	C121.945229,16.358955 122.011192,17.209522 121.820618,18.601303 
	C121.099228,19.412100 120.377838,20.222898 119.619057,21.904406 
	C119.708710,22.725960 119.798363,23.547516 119.123375,24.344858 
	C118.199524,27.019703 116.709114,29.925976 121.910011,30.707556 
	C122.403992,31.282776 122.897972,31.857996 123.362968,33.569233 
	C123.566132,33.888924 123.769295,34.208614 123.819366,35.279755 
	C123.518219,36.508110 123.217072,37.736462 122.227539,39.362293 
	C122.114578,41.224232 122.001610,43.086166 121.380707,45.044868 
	C121.130035,45.152561 120.879364,45.260254 120.628693,45.367950 
	C121.031273,45.602661 121.433846,45.837372 121.873306,46.720707 
	C121.934372,47.146568 121.995438,47.572430 121.436325,47.954426 
	C121.005188,48.329990 120.574043,48.705559 120.099922,49.673103 
	C117.411736,55.903748 113.881622,61.223866 107.418312,64.414772 
	C104.915161,65.650566 103.269829,68.623932 100.534966,70.954338 
	C100.132004,71.290405 99.729042,71.626480 99.326088,71.962555 
	C99.953583,72.294312 100.581070,72.626068 101.001633,73.604065 
	C100.540787,74.303604 100.079933,75.003143 99.809822,75.413155 
	C103.971046,75.627632 108.026039,75.836632 112.196381,76.660202 
	C114.559799,77.041382 116.923218,77.422569 120.020805,78.089165 
	C120.788292,78.323669 121.555779,78.558174 121.857079,79.445595 
	C119.778587,84.122383 120.845947,86.370865 126.984337,90.585236 
	C126.984337,90.585236 127.140411,90.942085 127.048973,91.791092 
	C126.365379,97.294518 125.530922,102.784325 125.032921,108.304497 
	C124.250725,116.974648 123.419090,125.656776 123.152100,134.350540 
	C123.002396,139.225311 123.946281,144.133667 124.296623,149.667252 
	C124.187836,150.085190 124.079048,150.503128 123.321510,151.162735 
	C122.790848,152.483307 122.260185,153.803864 120.996468,155.302200 
	C119.373184,157.722076 117.749908,160.141968 115.468681,162.379272 
	C114.418304,164.255630 113.367920,166.131989 111.931862,168.641983 
	C112.333374,169.401215 112.734886,170.160461 113.033134,171.730713 
	C112.453590,175.858322 109.761543,177.825821 105.499359,176.948929 
	C101.410255,176.107635 100.344627,172.800125 101.367012,169.550186 
	C102.804970,164.979248 104.829071,160.486710 107.283577,156.366364 
	C110.966873,150.183212 112.465256,145.515701 111.076950,140.945694 
	C110.690643,141.269547 110.122566,141.503891 110.061684,141.832275 
	C108.602585,149.702057 103.026649,154.892899 97.998123,160.428085 
	C90.509346,168.671417 94.629967,180.644180 102.982758,183.516739 
	C107.768265,185.162491 115.729744,182.689224 120.668404,177.851868 
	C121.086693,177.919769 121.504974,177.987671 122.013321,178.928360 
	C121.676117,181.856934 121.199905,184.777283 121.025932,187.715515 
	C120.303658,199.914093 119.845367,212.130539 118.965347,224.316971 
	C117.803993,240.399323 116.786507,256.513367 114.870148,272.513550 
	C113.142136,286.941223 110.341423,301.243469 107.832909,315.569336 
	C107.612236,316.829590 106.059097,318.772491 105.107765,318.782562 
	C103.526245,318.799316 101.234451,317.941528 100.452858,316.693573 
	C94.832237,307.719177 88.039742,306.901672 79.198860,308.551056 
	C76.072220,309.134399 73.496872,309.440460 70.510635,308.295593 
	C64.790245,306.102570 59.349873,306.640930 54.445755,310.734375 
	C53.246666,311.735260 51.620640,312.838654 50.192337,312.836700 
	C45.774372,312.830688 41.306828,312.625092 36.951767,311.920593 
	C30.947935,310.949432 26.249939,313.703918 21.793848,316.811371 
	C17.723087,319.650085 15.601065,325.843658 18.229790,329.805084 
	C21.896595,335.330902 24.386072,340.930634 25.205635,347.466644 
	C25.382656,348.878357 26.780926,350.336060 27.958733,351.390533 
	C34.992001,357.687378 43.055630,359.548035 52.055862,356.426208 
	C54.348030,355.631134 55.822021,355.984131 58.092007,357.302185 
	C64.347382,360.934235 71.068466,363.144440 78.706902,361.256775 
	C83.130684,360.163544 87.889099,359.888519 92.465889,360.062286 
	C101.903633,360.420624 110.628189,359.699066 116.113045,350.452057 
	C116.745590,349.385651 118.101997,348.332123 119.292122,348.083618 
	C125.016380,346.888428 130.798752,345.971619 136.634140,344.943024 
	C140.984207,358.835297 150.688049,360.742737 162.314850,360.042633 
	C165.593353,359.845215 169.027893,359.967529 172.202011,360.729736 
	C182.179886,363.125763 191.298874,361.878540 199.727112,355.376617 
	C206.038071,358.138580 212.530365,358.698181 219.397385,356.089417 
	C226.737686,353.300873 231.936035,347.331146 231.194687,340.445343 
	C231.019318,338.816345 232.050583,336.542603 233.287140,335.361542 
	C240.306732,328.657074 238.321274,321.233765 230.716354,315.878082 
	C222.899139,310.372955 214.133926,312.033875 205.542816,312.046722 
	C203.992432,312.049042 202.142487,312.061676 200.940994,311.282684 
	C194.869095,307.346008 188.761703,305.570007 181.681732,308.778809 
	C179.922165,309.576263 177.313675,309.216156 175.311447,308.638855 
	C166.636978,306.137695 157.265182,309.128479 154.556305,316.126404 
	C153.392975,319.131683 151.975616,319.356812 149.449539,318.665314 
	C148.650085,314.719299 147.631088,310.781982 147.082275,306.780151 
	C145.281509,293.649841 143.468552,280.516510 141.999222,267.346527 
	C139.852097,248.101349 137.791733,228.841644 136.092941,209.553024 
	C134.963074,196.724274 134.528366,183.834305 134.125824,170.346390 
	C139.041885,163.289993 144.113403,156.335587 148.829315,149.147842 
	C153.345154,142.265060 153.117249,140.966125 147.687988,134.329300 
	C142.021591,130.891006 137.534821,134.048813 133.002029,136.035645 
	C132.667480,125.881966 132.579407,115.711426 131.886353,105.582283 
	C131.575851,101.044342 130.052963,96.589355 129.687439,91.744682 
	C130.157410,90.463783 130.627396,89.182884 131.461426,87.628860 
	C131.677109,87.243637 131.892776,86.858421 132.903778,86.476013 
	C133.975616,85.746819 135.047470,85.017624 136.119308,84.288422 
	C135.981812,83.945564 135.844315,83.602715 135.706802,83.259857 
	C134.121353,83.175598 132.535889,83.091331 130.967789,82.219238 
	C131.063492,81.174202 131.159195,80.129173 131.894363,79.083939 
	C132.316467,79.028481 132.738556,78.973022 133.589645,78.869591 
	C133.589645,78.869591 133.994705,79.018776 134.014877,79.640465 
	C135.839691,83.613487 136.754227,79.926292 138.616440,78.901779 
	C138.797546,78.289154 138.978653,77.676537 139.995819,77.021782 
	C144.886261,76.423386 149.794647,75.929726 154.645065,75.097847 
	C155.271667,74.990387 155.598099,73.132698 156.178802,71.651596 
	C156.178802,71.651596 156.135483,71.206001 156.159454,70.408592 
	C154.841660,68.977127 153.792145,66.936874 152.160416,66.217834 
	C144.412140,62.803448 140.095016,56.641598 137.693863,48.443836 
	C137.086731,46.922859 136.479614,45.401882 135.980103,43.096428 
	C135.978302,41.777573 135.976517,40.458717 136.558258,39.043884 
	C136.783386,38.885456 137.008499,38.727032 137.233627,38.568604 
	C136.502686,38.379498 135.771729,38.190388 134.969025,37.460842 
M72.030167,247.546112 
	C72.296730,247.808197 72.563286,248.070282 73.196884,248.888428 
	C73.964539,248.556992 74.732201,248.225571 75.132286,248.620285 
	C76.515038,250.970825 77.332657,254.208008 79.381310,255.513779 
	C87.022743,260.384216 95.067986,264.621124 103.205200,269.680298 
	C105.044678,269.552399 106.900589,272.309113 108.737106,268.751526 
	C111.941032,262.545044 112.264847,262.715515 106.055527,259.013977 
	C98.710915,254.635666 91.369278,250.252350 83.909317,245.205444 
	C82.960281,244.793701 82.011246,244.381973 80.164207,243.786026 
	C79.033379,244.512054 77.902542,245.238083 76.946747,245.047485 
	C75.100975,242.066483 73.213432,242.005341 70.577034,245.382172 
	C71.045288,245.942368 71.513542,246.502579 72.010468,247.008286 
	C72.010468,247.008286 71.952141,246.988571 72.030167,247.546112 
z"/>
<path fill="#959595" opacity="1.000000" stroke="none" 
	d="
M133.782516,170.971725 
	C134.528366,183.834305 134.963074,196.724274 136.092941,209.553024 
	C137.791733,228.841644 139.852097,248.101349 141.999222,267.346527 
	C143.468552,280.516510 145.281509,293.649841 147.082275,306.780151 
	C147.631088,310.781982 148.650085,314.719299 149.449539,318.665314 
	C151.975616,319.356812 153.392975,319.131683 154.556305,316.126404 
	C157.265182,309.128479 166.636978,306.137695 175.311447,308.638855 
	C177.313675,309.216156 179.922165,309.576263 181.681732,308.778809 
	C188.761703,305.570007 194.869095,307.346008 200.940994,311.282684 
	C202.142487,312.061676 203.992432,312.049042 205.542816,312.046722 
	C214.133926,312.033875 222.899139,310.372955 230.716354,315.878082 
	C238.321274,321.233765 240.306732,328.657074 233.287140,335.361542 
	C232.050583,336.542603 231.019318,338.816345 231.194687,340.445343 
	C231.936035,347.331146 226.737686,353.300873 219.397385,356.089417 
	C212.530365,358.698181 206.038071,358.138580 199.727112,355.376617 
	C191.298874,361.878540 182.179886,363.125763 172.202011,360.729736 
	C169.027893,359.967529 165.593353,359.845215 162.314850,360.042633 
	C150.688049,360.742737 140.984207,358.835297 136.634140,344.943024 
	C130.798752,345.971619 125.016380,346.888428 119.292122,348.083618 
	C118.101997,348.332123 116.745590,349.385651 116.113045,350.452057 
	C110.628189,359.699066 101.903633,360.420624 92.465889,360.062286 
	C87.889099,359.888519 83.130684,360.163544 78.706902,361.256775 
	C71.068466,363.144440 64.347382,360.934235 58.092007,357.302185 
	C55.822021,355.984131 54.348030,355.631134 52.055862,356.426208 
	C43.055630,359.548035 34.992001,357.687378 27.958733,351.390533 
	C26.780926,350.336060 25.382656,348.878357 25.205635,347.466644 
	C24.386072,340.930634 21.896595,335.330902 18.229790,329.805084 
	C15.601065,325.843658 17.723087,319.650085 21.793848,316.811371 
	C26.249939,313.703918 30.947935,310.949432 36.951767,311.920593 
	C41.306828,312.625092 45.774372,312.830688 50.192337,312.836700 
	C51.620640,312.838654 53.246666,311.735260 54.445755,310.734375 
	C59.349873,306.640930 64.790245,306.102570 70.510635,308.295593 
	C73.496872,309.440460 76.072220,309.134399 79.198860,308.551056 
	C88.039742,306.901672 94.832237,307.719177 100.452858,316.693573 
	C101.234451,317.941528 103.526245,318.799316 105.107765,318.782562 
	C106.059097,318.772491 107.612236,316.829590 107.832909,315.569336 
	C110.341423,301.243469 113.142136,286.941223 114.870148,272.513550 
	C116.786507,256.513367 117.803993,240.399323 118.965347,224.316971 
	C119.845367,212.130539 120.303658,199.914093 121.025932,187.715515 
	C121.199905,184.777283 121.676117,181.856934 122.271736,178.576111 
	C123.640167,179.165894 124.750183,180.107941 125.845901,181.037857 
	C128.510559,177.658234 131.146530,174.314987 133.782516,170.971725 
z"/>
<path fill="#F9F9F9" opacity="1.000000" stroke="none" 
	d="
M116.126633,162.561859 
	C117.749908,160.141968 119.373184,157.722076 121.657059,155.086060 
	C122.868523,153.553635 123.419388,152.237350 123.970253,150.921066 
	C124.079048,150.503128 124.187836,150.085190 124.688278,149.419922 
	C128.268051,145.455017 132.563812,142.455780 133.003159,136.955521 
	C137.534821,134.048813 142.021591,130.891006 147.796875,135.035614 
	C147.662704,136.690170 147.666107,137.813034 147.137512,138.558945 
	C143.018097,144.372040 138.832428,150.139679 134.558029,155.839478 
	C134.054504,156.510925 132.890076,156.686722 131.887634,156.845886 
	C131.138229,156.457825 130.533173,156.316177 129.928131,156.174515 
	C130.173248,156.441345 130.418365,156.708160 130.844162,157.335159 
	C130.436157,159.526093 130.202667,161.587677 129.191376,163.143799 
	C126.297112,167.597275 123.087219,171.845627 119.694870,175.973251 
	C117.304329,174.154480 115.220360,172.537094 113.136383,170.919708 
	C112.734886,170.160461 112.333374,169.401215 112.436905,168.265808 
	C114.003510,166.113724 115.065071,164.337784 116.126633,162.561859 
M126.642197,153.102036 
	C126.348480,153.370651 126.054764,153.639267 125.761055,153.907883 
	C126.293930,154.100937 126.826813,154.293991 127.359680,154.487045 
	C127.301216,154.074951 127.242752,153.662872 126.642197,153.102036 
z"/>
<path fill="#949494" opacity="1.000000" stroke="none" 
	d="
M133.002594,136.495575 
	C132.563812,142.455780 128.268051,145.455017 124.738693,149.099747 
	C123.946281,144.133667 123.002396,139.225311 123.152100,134.350540 
	C123.419090,125.656776 124.250725,116.974648 125.032921,108.304497 
	C125.530922,102.784325 126.365379,97.294518 127.352478,91.487183 
	C128.130753,91.487755 128.605499,91.792244 129.080261,92.096733 
	C130.052963,96.589355 131.575851,101.044342 131.886353,105.582283 
	C132.579407,115.711426 132.667480,125.881966 133.002594,136.495575 
z"/>
<path fill="#B3C0E1" opacity="1.000000" stroke="none" 
	d="
M132.032013,157.092300 
	C132.890076,156.686722 134.054504,156.510925 134.558029,155.839478 
	C138.832428,150.139679 143.018097,144.372040 147.137512,138.558945 
	C147.666107,137.813034 147.662704,136.690170 148.000900,135.383942 
	C153.117249,140.966125 153.345154,142.265060 148.829315,149.147842 
	C144.113403,156.335587 139.041885,163.289993 133.954163,170.659058 
	C131.146530,174.314987 128.510559,177.658234 125.845901,181.037857 
	C124.750183,180.107941 123.640167,179.165894 122.226707,178.139709 
	C121.504974,177.987671 121.086693,177.919769 120.393845,177.592010 
	C120.080009,176.946320 120.040726,176.560471 120.001434,176.174637 
	C123.087219,171.845627 126.297112,167.597275 129.191376,163.143799 
	C130.202667,161.587677 130.436157,159.526093 131.189636,157.351593 
	C131.580292,157.036011 131.806152,157.064148 132.032013,157.092300 
z"/>
<path fill="#999999" opacity="1.000000" stroke="none" 
	d="
M119.694870,175.973251 
	C120.040726,176.560471 120.080009,176.946320 120.077011,177.619537 
	C115.729744,182.689224 107.768265,185.162491 102.982758,183.516739 
	C94.629967,180.644180 90.509346,168.671417 97.998123,160.428085 
	C103.026649,154.892899 108.602585,149.702057 110.061684,141.832275 
	C110.122566,141.503891 110.690643,141.269547 111.076950,140.945694 
	C112.465256,145.515701 110.966873,150.183212 107.283577,156.366364 
	C104.829071,160.486710 102.804970,164.979248 101.367012,169.550186 
	C100.344627,172.800125 101.410255,176.107635 105.499359,176.948929 
	C109.761543,177.825821 112.453590,175.858322 113.084763,171.325211 
	C115.220360,172.537094 117.304329,174.154480 119.694870,175.973251 
z"/>
<path fill="#EF5665" opacity="1.000000" stroke="none" 
	d="
M122.056503,47.998291 
	C121.995438,47.572430 121.934372,47.146568 121.940117,46.118759 
	C121.967499,45.327240 121.928070,45.137672 121.888641,44.948105 
	C122.001610,43.086166 122.114578,41.224232 122.779129,39.185982 
	C123.330711,39.009666 123.747902,39.011768 123.847298,39.320389 
	C124.630112,40.442150 125.313522,41.255283 126.027786,42.346138 
	C126.331390,42.956944 126.604149,43.290031 126.876907,43.623116 
	C127.255241,43.230183 127.633568,42.837254 128.255569,42.321430 
	C128.666290,42.126507 128.833344,42.054470 129.325333,42.069977 
	C130.096680,42.201885 130.543121,42.246250 131.021622,42.522011 
	C131.263184,42.929871 131.472687,43.106339 131.682175,43.282803 
	C131.780197,42.840240 131.878220,42.397678 132.145142,41.696022 
	C132.997009,40.650311 133.679962,39.863693 134.631073,39.107910 
	C135.257721,39.139122 135.616226,39.139492 135.974716,39.139862 
	C135.976517,40.458717 135.978302,41.777573 135.614899,43.716030 
	C135.249710,50.393852 135.249710,56.452072 135.249710,62.616333 
	C130.659653,62.616333 126.968185,62.616333 123.145226,62.616333 
	C123.145226,58.367416 123.208298,54.448608 123.095726,50.534855 
	C123.071136,49.680077 122.419411,48.843338 122.056503,47.998291 
z"/>
<path fill="#ABB8D8" opacity="1.000000" stroke="none" 
	d="
M186.691559,241.934814 
	C184.385635,245.716507 182.342163,249.692810 179.714783,253.236145 
	C175.327927,259.152313 170.731750,264.933563 165.913040,270.502838 
	C162.016876,275.005829 159.530365,269.772339 157.119247,268.257141 
	C154.169037,266.403168 156.382614,264.060547 158.987000,262.493317 
	C164.366196,264.857819 168.057587,262.622681 169.139557,256.720612 
	C171.887924,254.001373 174.374374,251.501953 177.177155,248.972229 
	C177.981491,248.617355 178.469513,248.292831 179.016541,247.644623 
	C180.131134,246.246674 181.186722,245.172394 182.483917,243.866501 
	C184.047516,243.068192 185.369537,242.501495 186.691559,241.934814 
z"/>
<path fill="#E0505F" opacity="1.000000" stroke="none" 
	d="
M137.393127,49.002220 
	C140.095016,56.641598 144.412140,62.803448 152.160416,66.217834 
	C153.792145,66.936874 154.841660,68.977127 155.668427,70.787338 
	C148.762482,71.132042 142.347549,71.097992 135.972290,71.077454 
	C136.011963,71.090973 135.972275,71.164780 136.167496,70.717499 
	C136.309036,63.861217 136.219101,57.452019 136.254623,51.043526 
	C136.258423,50.361004 136.995972,49.682556 137.393127,49.002220 
z"/>
<path fill="#E65462" opacity="1.000000" stroke="none" 
	d="
M101.233704,70.805725 
	C103.269829,68.623932 104.915161,65.650566 107.418312,64.414772 
	C113.881622,61.223866 117.411736,55.903748 120.364685,49.703094 
	C120.754219,56.493946 120.878983,63.254807 120.870094,70.311035 
	C115.794907,70.887032 110.853378,71.167656 105.567490,71.341583 
	C104.514099,71.305672 103.805077,71.376457 102.808907,71.392120 
	C102.326920,71.342735 102.132080,71.348473 101.824226,71.161209 
	C101.711212,70.968193 101.316772,70.757202 101.282166,70.745697 
	C101.247566,70.734200 101.233711,70.805725 101.233704,70.805725 
z"/>
<path fill="#ABB8D8" opacity="1.000000" stroke="none" 
	d="
M84.026352,245.871216 
	C91.369278,250.252350 98.710915,254.635666 106.055527,259.013977 
	C112.264847,262.715515 111.941032,262.545044 108.737106,268.751526 
	C106.900589,272.309113 105.044678,269.552399 103.115349,269.011475 
	C104.802330,264.208588 102.557289,261.963409 99.277855,260.054260 
	C96.034752,258.166321 92.964905,255.976929 89.696579,254.137360 
	C86.899208,252.562851 83.928482,251.296341 80.967621,249.608246 
	C80.723076,248.971466 80.545334,248.620056 80.525406,248.046204 
	C80.932617,247.560440 81.182014,247.297119 81.795235,246.997192 
	C82.781494,246.597473 83.403923,246.234344 84.026352,245.871216 
z"/>
<path fill="#EFEFF1" opacity="1.000000" stroke="none" 
	d="
M81.034424,249.893616 
	C83.928482,251.296341 86.899208,252.562851 89.696579,254.137360 
	C92.964905,255.976929 96.034752,258.166321 99.277855,260.054260 
	C102.557289,261.963409 104.802330,264.208588 102.993607,268.719177 
	C95.067986,264.621124 87.022743,260.384216 79.381310,255.513779 
	C77.332657,254.208008 76.515038,250.970825 75.284859,248.284241 
	C75.437431,247.948212 75.449623,248.030685 75.547043,248.416061 
	C76.374695,249.054749 77.104912,249.308075 78.014160,249.860840 
	C79.140266,250.071381 80.087349,249.982498 81.034424,249.893616 
z"/>
<path fill="#4F1F24" opacity="1.000000" stroke="none" 
	d="
M121.003754,70.015663 
	C120.878983,63.254807 120.754219,56.493946 120.386185,49.407104 
	C120.574043,48.705559 121.005188,48.329990 121.746414,47.976357 
	C122.419411,48.843338 123.071136,49.680077 123.095726,50.534855 
	C123.208298,54.448608 123.145226,58.367416 123.145226,62.616333 
	C126.968185,62.616333 130.659653,62.616333 135.249710,62.616333 
	C135.249710,56.452072 135.249710,50.393852 135.561096,44.108269 
	C136.479614,45.401882 137.086731,46.922859 137.543488,48.723030 
	C136.995972,49.682556 136.258423,50.361004 136.254623,51.043526 
	C136.219101,57.452019 136.309036,63.861217 135.764374,70.696579 
	C133.838928,71.143883 132.511826,71.164825 131.115372,70.932739 
	C131.017624,70.506676 130.989212,70.333641 131.375610,70.082359 
	C136.677292,70.191887 134.464203,66.819855 134.841476,64.323517 
	C130.778290,64.323517 127.047386,64.323517 123.087845,64.323517 
	C123.087845,66.384506 123.087845,68.173561 122.740555,69.974182 
	C121.930099,69.995735 121.466927,70.005699 121.003754,70.015663 
z"/>
<path fill="#2E2E2E" opacity="1.000000" stroke="none" 
	d="
M127.684616,21.994612 
	C130.599792,22.121269 133.515259,22.241890 136.429916,22.379406 
	C137.053268,22.408815 138.183731,22.405571 138.215256,22.576773 
	C138.480392,24.015995 139.080978,25.739256 138.546555,26.901640 
	C137.670166,28.807861 138.976349,32.737209 133.921570,32.046036 
	C132.792389,32.150295 132.357391,32.204163 131.832199,31.970078 
	C131.485077,31.372683 131.228149,31.063240 130.979950,30.562908 
	C130.988678,30.372019 130.978760,29.989973 131.329498,29.936302 
	C132.451431,28.253523 133.222626,26.624414 134.127518,24.945303 
	C134.175674,24.932213 134.090134,24.969122 133.641602,24.970337 
	C131.397736,25.028986 129.516861,25.123333 127.429962,25.176264 
	C127.223953,25.134848 126.817413,25.028297 126.747543,24.656067 
	C126.565262,23.578943 126.452850,22.874050 126.675476,22.117760 
	C127.235214,22.042442 127.459915,22.018526 127.684616,21.994612 
z"/>
<path fill="#F4F5F5" opacity="1.000000" stroke="none" 
	d="
M176.860825,249.002548 
	C174.374374,251.501953 171.887924,254.001373 168.872284,256.576721 
	C167.294800,255.766983 166.246521,254.881332 165.198242,253.995697 
	C167.545746,251.324890 169.893250,248.654083 172.868073,246.139526 
	C174.328842,246.861938 175.162323,247.428116 175.997894,247.997147 
	C176.000000,248.000000 176.004974,248.003693 176.091522,248.214111 
	C176.340866,248.693756 176.568451,248.886429 176.860825,249.002548 
z"/>
<path fill="#352027" opacity="1.000000" stroke="none" 
	d="
M120.870094,70.311035 
	C121.466927,70.005699 121.930099,69.995735 123.134720,69.991409 
	C124.925888,70.052498 125.975616,70.107933 126.994217,70.434525 
	C126.663910,71.133430 126.364731,71.561180 125.914444,71.634468 
	C124.495667,71.587624 123.227982,71.895233 121.761765,72.517532 
	C120.835625,72.903572 120.108017,72.974915 119.455498,73.381027 
	C119.449272,75.078445 119.367950,76.441101 119.286636,77.803757 
	C116.923218,77.422569 114.559799,77.041382 112.555618,76.337906 
	C114.584229,75.745926 116.253609,75.476242 117.922981,75.206566 
	C117.887993,74.456985 117.853004,73.707405 117.818016,72.957825 
	C112.281532,72.957825 106.745049,72.957825 101.208565,72.957825 
	C100.581070,72.626068 99.953583,72.294312 99.326088,71.962555 
	C99.729042,71.626480 100.132004,71.290405 100.884338,70.880035 
	C101.233711,70.805725 101.247566,70.734200 101.224976,70.922501 
	C101.447334,71.191948 101.692284,71.273087 101.937241,71.354218 
	C102.132080,71.348473 102.326920,71.342735 103.013931,71.545074 
	C104.308014,71.651527 105.109932,71.549896 105.911850,71.448273 
	C110.853378,71.167656 115.794907,70.887032 120.870094,70.311035 
z"/>
<path fill="#EFEFF1" opacity="1.000000" stroke="none" 
	d="
M165.084839,254.323730 
	C166.246521,254.881332 167.294800,255.766983 168.610336,256.796539 
	C168.057587,262.622681 164.366196,264.857819 159.316666,262.347015 
	C161.035812,259.627289 163.003632,257.139557 165.084839,254.323730 
z"/>
<path fill="#1C3250" opacity="1.000000" stroke="none" 
	d="
M156.063568,72.085754 
	C155.598099,73.132698 155.271667,74.990387 154.645065,75.097847 
	C149.794647,75.929726 144.886261,76.423386 139.460236,76.733871 
	C138.664139,75.902740 138.403625,75.359512 138.439026,74.591812 
	C140.402313,73.918243 142.045624,73.248833 143.741776,73.063850 
	C147.835907,72.617332 151.954712,72.397171 156.063568,72.085754 
z"/>
<path fill="#D0D5E1" opacity="1.000000" stroke="none" 
	d="
M126.817413,25.028297 
	C126.817413,25.028297 127.223953,25.134848 127.683769,25.577377 
	C128.279190,27.464697 128.414810,28.909483 128.653320,30.447239 
	C128.756195,30.540207 129.042526,30.514223 128.894913,30.702065 
	C128.178345,31.413872 127.609383,31.937836 126.706612,32.562843 
	C125.919792,32.766590 125.466789,32.869293 124.779968,32.788170 
	C124.161430,32.547298 123.776695,32.490253 123.391953,32.433212 
	C122.897972,31.857996 122.403992,31.282776 121.617256,29.995033 
	C121.504288,26.838715 121.684074,24.394920 122.109032,22.009430 
	C122.725471,21.982021 122.933685,21.750210 123.267609,21.237862 
	C124.094994,21.332027 124.633606,21.560633 125.126167,22.126209 
	C125.046432,22.914377 125.012733,23.365574 125.040344,24.068943 
	C125.373344,24.511990 125.645027,24.702866 126.138451,24.950413 
	C126.360184,25.007082 126.817413,25.028297 126.817413,25.028297 
M126.353172,28.927414 
	C126.021645,29.170444 125.690125,29.413475 125.358597,29.656506 
	C125.869186,29.578098 126.379776,29.499691 126.353172,28.927414 
z"/>
<path fill="#245987" opacity="1.000000" stroke="none" 
	d="
M131.254913,79.084137 
	C131.159195,80.129173 131.063492,81.174202 130.734161,82.859642 
	C131.036514,84.491096 131.572479,85.482147 132.108459,86.473198 
	C131.892776,86.858421 131.677109,87.243637 130.878098,87.803604 
	C129.238113,87.952797 128.181458,87.927261 127.076096,87.497192 
	C126.979874,85.741432 126.932343,84.390190 126.990723,82.636055 
	C127.387573,79.813538 127.369774,77.296219 128.092178,75.013123 
	C128.487579,73.763451 130.133804,72.909554 131.172729,71.918900 
	C131.129471,71.960625 131.093521,71.845932 131.010376,72.296234 
	C131.036469,74.859062 131.145691,76.971603 131.254913,79.084137 
z"/>
<path fill="#B08837" opacity="1.000000" stroke="none" 
	d="
M126.884811,83.038956 
	C126.932343,84.390190 126.979874,85.741432 127.033615,87.877213 
	C127.013405,89.173332 126.986977,89.684898 126.960556,90.196465 
	C120.845947,86.370865 119.778587,84.122383 122.127930,79.115059 
	C122.398781,78.784523 122.450813,78.958755 122.678558,79.290085 
	C123.919197,79.941162 124.932083,80.260902 125.788666,80.857262 
	C126.049843,81.768913 126.467331,82.403931 126.884811,83.038956 
z"/>
<path fill="#1C3250" opacity="1.000000" stroke="none" 
	d="
M101.105103,73.280945 
	C106.745049,72.957825 112.281532,72.957825 117.818016,72.957825 
	C117.853004,73.707405 117.887993,74.456985 117.922981,75.206566 
	C116.253609,75.476242 114.584229,75.745926 112.497940,76.030624 
	C108.026039,75.836632 103.971046,75.627632 99.809822,75.413155 
	C100.079933,75.003143 100.540787,74.303604 101.105103,73.280945 
z"/>
<path fill="#EFEFF1" opacity="1.000000" stroke="none" 
	d="
M138.143097,74.816284 
	C138.403625,75.359512 138.664139,75.902740 139.042206,76.754944 
	C138.978653,77.676537 138.797546,78.289154 137.917542,78.959167 
	C136.143997,79.017303 135.069351,79.018044 133.994705,79.018784 
	C133.994705,79.018776 133.589645,78.869591 133.217468,78.541702 
	C132.845291,76.188644 132.845291,74.163483 132.845291,71.993538 
	C132.663010,71.978180 131.878265,71.912056 131.093521,71.845932 
	C131.093521,71.845932 131.129471,71.960625 131.164246,71.746346 
	C131.199005,71.532066 131.184723,71.185768 131.184723,71.185768 
	C132.511826,71.164825 133.838928,71.143883 135.569153,71.143860 
	C135.972275,71.164780 136.011963,71.090973 136.032898,71.400665 
	C136.750244,72.745667 137.446671,73.780975 138.143097,74.816284 
z"/>
<path fill="#D0D5E1" opacity="1.000000" stroke="none" 
	d="
M186.430145,241.457199 
	C185.369537,242.501495 184.047516,243.068192 182.235168,243.598846 
	C180.496201,242.368973 179.247589,241.175140 177.998978,239.981308 
	C179.087555,238.663605 180.176132,237.345901 181.677994,236.381622 
	C182.712357,237.182861 183.333450,237.630692 183.981598,238.048889 
	C184.008652,238.019272 183.937210,238.055298 183.970139,238.448700 
	C184.489731,238.943176 184.976410,239.044266 185.494537,239.237244 
	C185.614304,239.553940 185.702332,239.763763 185.790070,239.958603 
	C185.916290,240.298935 186.042496,240.639267 186.430145,241.457199 
z"/>
<path fill="#4F1F24" opacity="1.000000" stroke="none" 
	d="
M138.439026,74.591812 
	C137.446671,73.780975 136.750244,72.745667 135.993225,71.387146 
	C142.347549,71.097992 148.762482,71.132042 155.656433,71.186050 
	C156.135483,71.206001 156.178802,71.651596 156.121185,71.868668 
	C151.954712,72.397171 147.835907,72.617332 143.741776,73.063850 
	C142.045624,73.248833 140.402313,73.918243 138.439026,74.591812 
z"/>
<path fill="#959595" opacity="1.000000" stroke="none" 
	d="
M124.009583,13.223834 
	C126.686256,10.802036 129.362930,8.380239 132.039612,5.958441 
	C132.487000,6.415397 132.934387,6.872354 133.381775,7.329311 
	C129.698654,9.290522 124.735214,10.261059 125.656235,16.310959 
	C124.894112,16.394756 124.454811,16.202282 124.066193,15.661753 
	C124.081100,14.617076 124.045341,13.920455 124.009583,13.223834 
z"/>
<path fill="#F4F5F5" opacity="1.000000" stroke="none" 
	d="
M177.649292,239.884338 
	C179.247589,241.175140 180.496201,242.368973 181.993561,243.830444 
	C181.186722,245.172394 180.131134,246.246674 178.648132,247.648254 
	C177.482147,247.984909 176.743561,247.994293 176.004974,248.003693 
	C176.004974,248.003693 176.000000,248.000000 176.030609,247.632172 
	C175.717102,245.871780 175.372986,244.479233 175.028870,243.086670 
	C175.785767,241.986908 176.542694,240.887146 177.649292,239.884338 
z"/>
<path fill="#DC8022" opacity="1.000000" stroke="none" 
	d="
M75.449623,248.030685 
	C75.449623,248.030685 75.437431,247.948212 75.468643,247.921173 
	C74.732201,248.225571 73.964539,248.556992 72.963867,248.330322 
	C72.471275,247.511002 72.211708,247.249786 71.952141,246.988571 
	C71.952141,246.988571 72.010468,247.008286 71.990341,246.718719 
	C71.640144,245.904175 71.310059,245.379211 70.979980,244.854233 
	C73.213432,242.005341 75.100975,242.066483 76.871078,245.648499 
	C76.795410,246.249527 76.874916,246.528946 76.749336,246.602371 
	C76.437248,246.920319 76.230324,247.142822 75.877594,247.525543 
	C75.752205,247.707825 75.449623,248.030685 75.449623,248.030685 
z"/>
<path fill="#DC8022" opacity="1.000000" stroke="none" 
	d="
M186.150040,240.063416 
	C185.702332,239.763763 185.614304,239.553940 185.255844,239.024170 
	C184.636200,238.497894 184.286697,238.276596 183.937210,238.055298 
	C183.937210,238.055298 184.008652,238.019272 183.856491,237.772141 
	C183.450287,236.989975 183.196243,236.454941 182.942200,235.919907 
	C182.942200,235.919907 182.983215,235.998138 183.253632,235.933014 
	C184.044083,235.554047 184.564102,235.240204 185.084137,234.926361 
	C185.084137,234.926361 185.440353,234.868378 185.983902,234.858490 
	C187.014526,234.819901 187.501617,234.791183 187.988693,234.762482 
	C189.551941,238.754852 189.415787,239.252609 186.150040,240.063416 
z"/>
<path fill="#5C5B5D" opacity="1.000000" stroke="none" 
	d="
M124.015518,16.009808 
	C124.454811,16.202282 124.894112,16.394756 125.545212,16.710522 
	C126.443184,18.324316 127.129341,19.814819 127.750053,21.649967 
	C127.459915,22.018526 127.235214,22.042442 126.471115,22.089581 
	C125.691750,21.973963 125.438583,21.866110 125.172211,21.789238 
	C124.633606,21.560633 124.094994,21.332027 123.286072,20.856054 
	C122.702881,19.759153 122.390015,18.909622 122.077148,18.060089 
	C122.011192,17.209522 121.945229,16.358955 122.539001,15.868475 
	C123.470993,16.155645 123.743256,16.082727 124.015518,16.009808 
z"/>
<path fill="#5C5B5D" opacity="1.000000" stroke="none" 
	d="
M121.863861,21.951124 
	C121.684074,24.394920 121.504288,26.838715 121.430344,29.767103 
	C116.709114,29.925976 118.199524,27.019703 119.693916,24.085909 
	C120.828339,23.194708 121.392220,22.562458 121.933990,21.939240 
	C121.911873,21.948271 121.863861,21.951124 121.863861,21.951124 
z"/>
<path fill="#B3C0E1" opacity="1.000000" stroke="none" 
	d="
M122.450813,78.958755 
	C122.450813,78.958755 122.398781,78.784523 122.361023,78.788605 
	C121.555779,78.558174 120.788292,78.323669 119.653717,77.946457 
	C119.367950,76.441101 119.449272,75.078445 119.568581,73.758652 
	C121.441986,75.135742 123.277412,76.469978 125.862648,78.349266 
	C124.163612,78.652786 123.307213,78.805771 122.450813,78.958755 
z"/>
<path fill="#1F2323" opacity="1.000000" stroke="none" 
	d="
M132.506119,86.474609 
	C131.572479,85.482147 131.036514,84.491096 130.725494,83.253555 
	C132.535889,83.091331 134.121353,83.175598 135.706802,83.259857 
	C135.844315,83.602715 135.981812,83.945564 136.119308,84.288422 
	C135.047470,85.017624 133.975616,85.746819 132.506119,86.474609 
z"/>
<path fill="#E0505F" opacity="1.000000" stroke="none" 
	d="
M123.747902,39.011772 
	C123.747902,39.011768 123.330711,39.009666 123.123322,38.987240 
	C123.217072,37.736462 123.518219,36.508110 124.062439,34.769440 
	C124.542244,34.094078 124.783356,33.935703 125.442986,33.878639 
	C126.419724,33.981010 126.982315,33.988743 127.628891,34.045433 
	C127.712860,34.094387 127.657440,34.280724 127.762070,34.338295 
	C127.866699,34.395870 127.714485,34.581192 127.559334,34.814442 
	C127.195381,35.556961 126.986580,36.066231 126.451271,36.675232 
	C125.332474,37.520565 124.540192,38.266167 123.747902,39.011772 
z"/>
<path fill="#B3C0E1" opacity="1.000000" stroke="none" 
	d="
M76.874916,246.528946 
	C76.874916,246.528946 76.795410,246.249527 76.783562,246.106812 
	C77.902542,245.238083 79.033379,244.512054 80.793884,244.176514 
	C81.426178,245.389282 81.428795,246.211533 81.431412,247.033798 
	C81.182014,247.297119 80.932617,247.560440 80.389847,248.002045 
	C80.096466,248.180344 79.805733,248.158264 79.466980,248.068100 
	C78.667259,248.042389 78.206291,248.106827 77.798370,248.154419 
	C77.851410,248.137543 77.827988,248.246384 77.905518,247.948334 
	C77.613670,247.276505 77.244293,246.902725 76.874916,246.528946 
z"/>
<path fill="#1F2323" opacity="1.000000" stroke="none" 
	d="
M131.010376,72.296234 
	C131.878265,71.912056 132.663010,71.978180 132.845291,71.993538 
	C132.845291,74.163483 132.845291,76.188644 133.002975,78.565689 
	C132.738556,78.973022 132.316467,79.028481 131.574646,79.084038 
	C131.145691,76.971603 131.036469,74.859062 131.010376,72.296234 
z"/>
<path fill="#DC8022" opacity="1.000000" stroke="none" 
	d="
M126.972443,90.390854 
	C126.986977,89.684898 127.013405,89.173332 127.082306,88.281738 
	C128.181458,87.927261 129.238113,87.952797 130.696075,87.940163 
	C130.627396,89.182884 130.157410,90.463783 129.383850,91.920708 
	C128.605499,91.792244 128.130753,91.487755 127.398201,91.062675 
	C127.140411,90.942085 126.984337,90.585236 126.972443,90.390854 
z"/>
<path fill="#F4F5F5" opacity="1.000000" stroke="none" 
	d="
M115.797653,162.470566 
	C115.065071,164.337784 114.003510,166.113724 112.629745,167.949005 
	C113.367920,166.131989 114.418304,164.255630 115.797653,162.470566 
z"/>
<path fill="#959595" opacity="1.000000" stroke="none" 
	d="
M121.948883,18.330696 
	C122.390015,18.909622 122.702881,19.759153 122.997284,20.990494 
	C122.933685,21.750210 122.725471,21.982021 122.109024,22.009430 
	C121.863861,21.951124 121.911873,21.948271 121.756424,21.656990 
	C120.952805,21.255039 120.304634,21.144367 119.656456,21.033695 
	C120.377838,20.222898 121.099228,19.412100 121.948883,18.330696 
z"/>
<path fill="#D0D5E1" opacity="1.000000" stroke="none" 
	d="
M174.727966,243.188995 
	C175.372986,244.479233 175.717102,245.871780 176.028503,247.629318 
	C175.162323,247.428116 174.328842,246.861938 173.234436,246.136597 
	C173.458023,245.082062 173.942551,244.186691 174.727966,243.188995 
z"/>
<path fill="#F4F5F5" opacity="1.000000" stroke="none" 
	d="
M123.645882,151.041901 
	C123.419388,152.237350 122.868523,153.553635 122.023590,154.997177 
	C122.260185,153.803864 122.790848,152.483307 123.645882,151.041901 
z"/>
<path fill="#1F2323" opacity="1.000000" stroke="none" 
	d="
M134.004791,79.329620 
	C135.069351,79.018044 136.143997,79.017303 137.617554,79.090759 
	C136.754227,79.926292 135.839691,83.613487 134.004791,79.329620 
z"/>
<path fill="#D0D5E1" opacity="1.000000" stroke="none" 
	d="
M131.922394,32.258034 
	C132.357391,32.204163 132.792389,32.150295 133.584503,32.054253 
	C133.977936,32.733810 134.014252,33.455540 134.070587,34.840210 
	C134.099152,35.704647 134.107727,35.906147 134.116287,36.107647 
	C134.116287,36.107647 134.073242,36.517651 133.936569,36.859875 
	C133.799896,37.202099 133.530212,37.473957 133.362976,37.402359 
	C133.195724,37.330757 132.973129,37.042923 132.967010,36.642239 
	C132.627777,35.319641 132.294662,34.397728 131.907349,33.276318 
	C131.815720,32.798775 131.838806,32.525845 131.922394,32.258034 
z"/>
<path fill="#1F2323" opacity="1.000000" stroke="none" 
	d="
M81.795235,246.997192 
	C81.428795,246.211533 81.426178,245.389282 81.242882,244.268631 
	C82.011246,244.381973 82.960281,244.793701 83.967834,245.538330 
	C83.403923,246.234344 82.781494,246.597473 81.795235,246.997192 
z"/>
<path fill="#5C5B5D" opacity="1.000000" stroke="none" 
	d="
M70.778503,245.118195 
	C71.310059,245.379211 71.640144,245.904175 71.976013,246.745956 
	C71.513542,246.502579 71.045288,245.942368 70.778503,245.118195 
z"/>
<path fill="#EFEFF1" opacity="1.000000" stroke="none" 
	d="
M119.637756,21.469051 
	C120.304634,21.144367 120.952805,21.255039 121.778542,21.647961 
	C121.392220,22.562458 120.828339,23.194708 120.076233,24.098015 
	C119.798363,23.547516 119.708710,22.725960 119.637756,21.469051 
z"/>
<path fill="#5C5B5D" opacity="1.000000" stroke="none" 
	d="
M136.266479,39.091873 
	C135.616226,39.139492 135.257721,39.139122 134.507034,38.863144 
	C134.064301,38.411640 134.013763,38.235737 134.231567,38.025620 
	C134.680191,37.994694 134.860489,37.997986 135.040787,38.001282 
	C135.771729,38.190388 136.502686,38.379498 137.233627,38.568604 
	C137.008499,38.727032 136.783386,38.885456 136.266479,39.091873 
z"/>
<path fill="#5C5B5D" opacity="1.000000" stroke="none" 
	d="
M187.856873,234.488846 
	C187.501617,234.791183 187.014526,234.819901 186.161499,234.826569 
	C185.628784,234.245270 185.462021,233.685974 185.295242,233.126709 
	C186.105164,233.489532 186.915100,233.852371 187.856873,234.488846 
z"/>
<path fill="#5C5B5D" opacity="1.000000" stroke="none" 
	d="
M184.806656,234.838867 
	C184.564102,235.240204 184.044083,235.554047 183.217651,235.907425 
	C183.450546,235.548431 183.989868,235.149902 184.806656,234.838867 
z"/>
<path fill="#EFEFF1" opacity="1.000000" stroke="none" 
	d="
M124.066193,15.661754 
	C123.743256,16.082727 123.470993,16.155645 122.797874,16.094126 
	C122.666229,15.060279 122.935440,14.160868 123.607117,13.242645 
	C124.045341,13.920455 124.081100,14.617076 124.066193,15.661754 
z"/>
<path fill="#5C5B5D" opacity="1.000000" stroke="none" 
	d="
M182.686279,235.933838 
	C183.196243,236.454941 183.450287,236.989975 183.829437,237.801758 
	C183.333450,237.630692 182.712357,237.182861 182.011322,236.400085 
	C182.097702,236.026001 182.264023,235.986877 182.686279,235.933838 
z"/>
<path fill="#2E2E2E" opacity="1.000000" stroke="none" 
	d="
M125.028847,33.784004 
	C124.783356,33.935703 124.542244,34.094078 124.138992,34.393715 
	C123.769295,34.208614 123.566132,33.888924 123.377464,33.001221 
	C123.776695,32.490253 124.161430,32.547298 124.765739,32.991508 
	C124.985313,33.378681 125.028847,33.784004 125.028847,33.784004 
z"/>
<path fill="#ABB8D8" opacity="1.000000" stroke="none" 
	d="
M134.506256,36.047913 
	C134.107727,35.906147 134.099152,35.704647 134.099152,35.201389 
	C134.754517,34.957314 135.401306,35.014999 136.048080,35.072681 
	C135.664124,35.377850 135.280167,35.683014 134.506256,36.047913 
z"/>
<path fill="#4F1F24" opacity="1.000000" stroke="none" 
	d="
M121.634674,44.996487 
	C121.928070,45.137672 121.967499,45.327240 121.921677,45.794445 
	C121.433846,45.837372 121.031273,45.602661 120.628693,45.367950 
	C120.879364,45.260254 121.130035,45.152561 121.634674,44.996487 
z"/>
<path fill="#5C5B5D" opacity="1.000000" stroke="none" 
	d="
M71.991150,247.267334 
	C72.211708,247.249786 72.471275,247.511002 72.780350,248.052292 
	C72.563286,248.070282 72.296730,247.808197 71.991150,247.267334 
z"/>
<path fill="#D0D5E1" opacity="1.000000" stroke="none" 
	d="
M135.004913,37.731064 
	C134.860489,37.997986 134.680191,37.994694 134.094498,37.900471 
	C133.689102,37.809536 133.530212,37.473957 133.530212,37.473957 
	C133.530212,37.473957 133.799896,37.202099 133.935593,37.066002 
	C134.370529,37.106884 134.669785,37.283863 135.004913,37.731064 
z"/>
<path fill="#F4F5F5" opacity="1.000000" stroke="none" 
	d="
M126.913239,153.176407 
	C127.242752,153.662872 127.301216,154.074951 127.359680,154.487045 
	C126.826813,154.293991 126.293930,154.100937 125.761047,153.907883 
	C126.054764,153.639267 126.348480,153.370651 126.913239,153.176407 
z"/>
<path fill="#F4F5F5" opacity="1.000000" stroke="none" 
	d="
M131.887634,156.845886 
	C131.806152,157.064148 131.580292,157.036011 131.008972,156.991425 
	C130.418365,156.708160 130.173248,156.441345 129.928131,156.174515 
	C130.533173,156.316177 131.138229,156.457825 131.887634,156.845886 
z"/>
<path fill="#1F2323" opacity="1.000000" stroke="none" 
	d="
M133.362976,37.402359 
	C133.530212,37.473957 133.689102,37.809536 133.826172,37.934685 
	C134.013763,38.235737 134.064301,38.411640 134.238876,38.832306 
	C133.679962,39.863693 132.997009,40.650311 131.884369,41.738289 
	C131.299652,42.123306 131.144608,42.206963 130.989548,42.290615 
	C130.543121,42.246250 130.096680,42.201885 129.330536,41.729912 
	C129.011917,40.848911 129.013031,40.395515 129.377304,39.884750 
	C130.243118,38.819149 130.745758,37.810921 131.675644,36.891129 
	C132.392975,37.000687 132.683060,37.021805 132.973129,37.042923 
	C132.973129,37.042923 133.195724,37.330757 133.362976,37.402359 
z"/>
<path fill="#000000" opacity="1.000000" stroke="none" 
	d="
M123.847298,39.320393 
	C124.540192,38.266167 125.332474,37.520565 126.564667,36.989872 
	C127.159004,37.613441 127.313431,38.022102 127.269791,38.831982 
	C127.022278,40.120434 126.972855,41.007664 126.693573,41.947769 
	C126.463730,42.000645 125.996933,42.068420 125.996933,42.068420 
	C125.313522,41.255283 124.630112,40.442150 123.847298,39.320393 
z"/>
<path fill="#2E2E2E" opacity="1.000000" stroke="none" 
	d="
M126.923424,41.894897 
	C126.972855,41.007664 127.022278,40.120434 127.501358,38.988457 
	C128.292053,39.143185 128.653091,39.542652 129.014130,39.942123 
	C129.013031,40.395515 129.011917,40.848911 129.005615,41.642372 
	C128.833344,42.054470 128.666290,42.126507 127.977402,42.196011 
	C127.278183,42.093952 127.100800,41.994427 126.923424,41.894897 
z"/>
<path fill="#E65462" opacity="1.000000" stroke="none" 
	d="
M126.693573,41.947769 
	C127.100800,41.994427 127.278183,42.093952 127.733734,42.318901 
	C127.633568,42.837254 127.255241,43.230183 126.876907,43.623116 
	C126.604149,43.290031 126.331390,42.956944 126.027786,42.346138 
	C125.996933,42.068420 126.463730,42.000645 126.693573,41.947769 
z"/>
<path fill="#E65462" opacity="1.000000" stroke="none" 
	d="
M131.021622,42.522011 
	C131.144608,42.206963 131.299652,42.123306 131.715454,41.997383 
	C131.878220,42.397678 131.780197,42.840240 131.682175,43.282803 
	C131.472687,43.106339 131.263184,42.929871 131.021622,42.522011 
z"/>
<path fill="#D0D5E1" opacity="1.000000" stroke="none" 
	d="
M176.091522,248.214111 
	C176.743561,247.994293 177.482147,247.984909 178.589142,247.971909 
	C178.469513,248.292831 177.981491,248.617355 177.177155,248.972229 
	C176.568451,248.886429 176.340866,248.693756 176.091522,248.214111 
z"/>
<path fill="#4F1F24" opacity="1.000000" stroke="none" 
	d="
M105.567490,71.341576 
	C105.109932,71.549896 104.308014,71.651527 103.301071,71.600204 
	C103.805077,71.376457 104.514099,71.305672 105.567490,71.341576 
z"/>
<path fill="#4F1F24" opacity="1.000000" stroke="none" 
	d="
M101.824226,71.161209 
	C101.692284,71.273087 101.447334,71.191948 101.259575,70.934006 
	C101.316772,70.757202 101.711212,70.968193 101.824226,71.161209 
z"/>
<path fill="#D0D5E1" opacity="1.000000" stroke="none" 
	d="
M79.805725,248.158264 
	C79.805733,248.158264 80.096466,248.180344 80.232025,248.224487 
	C80.545334,248.620056 80.723076,248.971466 80.967621,249.608246 
	C80.087349,249.982498 79.140266,250.071381 77.959023,249.710922 
	C77.724854,249.261581 77.936699,249.022430 78.219307,249.033936 
	C78.936523,248.749710 79.371124,248.453979 79.805725,248.158264 
z"/>
<path fill="#1F2323" opacity="1.000000" stroke="none" 
	d="
M77.936699,249.022430 
	C77.936699,249.022430 77.724854,249.261581 77.779991,249.411499 
	C77.104912,249.308075 76.374695,249.054749 75.547043,248.416061 
	C75.449623,248.030685 75.752205,247.707825 76.118500,247.784576 
	C76.932533,247.989670 77.380264,248.118027 77.827988,248.246384 
	C77.827988,248.246384 77.851410,248.137543 77.843719,248.367706 
	C77.836037,248.597870 77.936699,249.022430 77.936699,249.022430 
z"/>
<path fill="#EF5665" opacity="1.000000" stroke="none" 
	d="
M127.025337,70.163368 
	C125.975616,70.107933 124.925888,70.052498 123.482010,69.979836 
	C123.087845,68.173561 123.087845,66.384506 123.087845,64.323517 
	C127.047386,64.323517 130.778290,64.323517 134.841476,64.323517 
	C134.464203,66.819855 136.677292,70.191887 130.984314,70.016617 
	C129.127258,70.073875 128.076294,70.118622 127.025337,70.163368 
z"/>
<path fill="#1F2323" opacity="1.000000" stroke="none" 
	d="
M126.994217,70.434525 
	C128.076294,70.118622 129.127258,70.073875 130.569519,70.094872 
	C130.989212,70.333641 131.017624,70.506676 131.115372,70.932739 
	C131.184723,71.185768 131.199005,71.532066 131.207489,71.704620 
	C130.133804,72.909554 128.487579,73.763451 128.092178,75.013123 
	C127.369774,77.296219 127.387573,79.813538 126.990723,82.636055 
	C126.467331,82.403931 126.049843,81.768913 125.797272,80.433014 
	C125.687134,78.163559 125.412086,76.594986 125.068489,74.702316 
	C125.355141,73.581795 125.710342,72.785362 126.065544,71.988922 
	C126.364731,71.561180 126.663910,71.133430 126.994217,70.434525 
z"/>
<path fill="#1C3250" opacity="1.000000" stroke="none" 
	d="
M128.550430,30.354267 
	C128.414810,28.909483 128.279190,27.464697 127.889786,25.618793 
	C129.516861,25.123333 131.397736,25.028986 133.639313,24.967319 
	C134.000000,25.000000 133.993820,24.995302 133.993820,24.995304 
	C133.222626,26.624414 132.451431,28.253523 131.302994,29.924210 
	C130.925751,29.965788 130.872086,29.941156 130.575226,29.763088 
	C129.702393,29.841438 129.126404,30.097853 128.550430,30.354267 
z"/>
<path fill="#F4F5F5" opacity="1.000000" stroke="none" 
	d="
M131.832199,31.970079 
	C131.838806,32.525845 131.815720,32.798775 131.704346,33.538349 
	C131.236893,34.306690 130.918228,34.613510 130.451965,34.901287 
	C130.304352,34.882248 130.036728,35.012577 130.008698,34.664986 
	C129.206253,34.305172 128.431839,34.292950 127.657440,34.280724 
	C127.657440,34.280724 127.712860,34.094387 127.608948,33.626869 
	C127.350166,32.926834 127.195290,32.694317 127.040421,32.461800 
	C127.609383,31.937836 128.178345,31.413872 129.065491,30.633270 
	C129.383667,30.376633 129.672287,30.146069 129.872406,30.281908 
	C130.350174,30.588383 130.649734,30.700399 130.971222,30.753796 
	C131.228149,31.063240 131.485077,31.372683 131.832199,31.970079 
z"/>
<path fill="#ABB8D8" opacity="1.000000" stroke="none" 
	d="
M125.126167,22.126209 
	C125.438583,21.866110 125.691750,21.973963 126.136078,22.140980 
	C126.452850,22.874050 126.565262,23.578943 126.747543,24.656067 
	C126.817413,25.028297 126.360184,25.007082 126.115646,24.686508 
	C125.573753,24.182880 125.276398,23.999826 124.979034,23.816772 
	C125.012733,23.365574 125.046432,22.914377 125.126167,22.126209 
z"/>
<path fill="#1C3250" opacity="1.000000" stroke="none" 
	d="
M134.002289,25.003016 
	C134.090134,24.969122 134.175674,24.932213 134.127518,24.945301 
	C133.993820,24.995302 134.000000,25.000000 134.002289,25.003016 
z"/>
<path fill="#1C3250" opacity="1.000000" stroke="none" 
	d="
M130.979950,30.562906 
	C130.649734,30.700399 130.350174,30.588383 130.179123,30.272064 
	C130.481201,30.064640 130.676651,30.002899 130.872086,29.941156 
	C130.872086,29.941156 130.925751,29.965788 130.952255,29.977880 
	C130.978760,29.989973 130.988678,30.372019 130.979950,30.562906 
z"/>
<path fill="#000000" opacity="1.000000" stroke="none" 
	d="
M125.137039,75.026405 
	C125.412086,76.594986 125.687134,78.163559 125.953575,80.156387 
	C124.932083,80.260902 123.919197,79.941162 122.678558,79.290092 
	C123.307213,78.805771 124.163612,78.652786 125.862648,78.349266 
	C123.277412,76.469978 121.441986,75.135742 119.493484,73.423889 
	C120.108017,72.974915 120.835625,72.903572 122.125870,72.429291 
	C123.125252,72.864601 123.504456,73.741547 124.028816,74.520836 
	C124.221985,74.807938 124.757614,74.864624 125.137039,75.026405 
z"/>
<path fill="#EFEFF1" opacity="1.000000" stroke="none" 
	d="
M125.068489,74.702316 
	C124.757614,74.864624 124.221985,74.807938 124.028816,74.520836 
	C123.504456,73.741547 123.125252,72.864601 122.324402,72.114609 
	C123.227982,71.895233 124.495667,71.587624 125.914444,71.634468 
	C125.710342,72.785362 125.355141,73.581795 125.068489,74.702316 
z"/>
<path fill="#5C5B5D" opacity="1.000000" stroke="none" 
	d="
M126.706612,32.562843 
	C127.195290,32.694317 127.350166,32.926834 127.524979,33.577911 
	C126.982315,33.988743 126.419724,33.981010 125.442986,33.878639 
	C125.028847,33.784004 124.985313,33.378681 124.999542,33.175339 
	C125.466789,32.869293 125.919792,32.766590 126.706612,32.562843 
z"/>
<path fill="#5C5B5D" opacity="1.000000" stroke="none" 
	d="
M126.621765,29.174349 
	C126.379776,29.499691 125.869186,29.578098 125.358597,29.656506 
	C125.690125,29.413475 126.021645,29.170444 126.621765,29.174349 
z"/>
<path fill="#5C5B5D" opacity="1.000000" stroke="none" 
	d="
M130.575226,29.763088 
	C130.676651,30.002899 130.481201,30.064640 129.979004,30.136227 
	C129.672287,30.146069 129.383667,30.376633 129.213104,30.445427 
	C129.042526,30.514223 128.756195,30.540207 128.653320,30.447237 
	C129.126404,30.097853 129.702393,29.841438 130.575226,29.763088 
z"/>
<path fill="#2E2E2E" opacity="1.000000" stroke="none" 
	d="
M125.040344,24.068943 
	C125.276398,23.999826 125.573753,24.182880 125.893921,24.629837 
	C125.645027,24.702866 125.373344,24.511990 125.040344,24.068943 
z"/>
<path fill="#5C5B5D" opacity="1.000000" stroke="none" 
	d="
M183.970139,238.448700 
	C184.286697,238.276596 184.636200,238.497894 185.224380,238.932281 
	C184.976410,239.044266 184.489731,238.943176 183.970139,238.448700 
z"/>
<path fill="#EFEFF1" opacity="1.000000" stroke="none" 
	d="
M77.905518,247.948334 
	C77.380264,248.118027 76.932533,247.989670 76.243889,247.602295 
	C76.230324,247.142822 76.437248,246.920319 76.749336,246.602371 
	C77.244293,246.902725 77.613670,247.276505 77.905518,247.948334 
z"/>
<path fill="#D0D5E1" opacity="1.000000" stroke="none" 
	d="
M130.036728,35.012577 
	C130.036728,35.012577 130.304352,34.882248 130.415970,35.163307 
	C130.767853,35.897141 131.008133,36.349918 131.248413,36.802696 
	C130.745758,37.810921 130.243118,38.819149 129.377289,39.884747 
	C128.653091,39.542652 128.292053,39.143185 127.699432,38.587238 
	C127.313431,38.022102 127.159004,37.613441 126.891182,36.890141 
	C126.986580,36.066231 127.195381,35.556961 127.652794,35.138203 
	C128.613174,35.156666 129.324951,35.084621 130.036728,35.012577 
z"/>
<path fill="#000000" opacity="1.000000" stroke="none" 
	d="
M130.008698,34.664986 
	C129.324951,35.084621 128.613174,35.156666 127.807945,34.904953 
	C127.714485,34.581192 127.866699,34.395870 127.762070,34.338295 
	C128.431839,34.292950 129.206253,34.305172 130.008698,34.664986 
z"/>
<path fill="#EFEFF1" opacity="1.000000" stroke="none" 
	d="
M78.219307,249.033936 
	C77.936699,249.022430 77.836037,248.597870 77.790680,248.384583 
	C78.206291,248.106827 78.667259,248.042389 79.466980,248.068085 
	C79.371124,248.453979 78.936523,248.749710 78.219307,249.033936 
z"/>
<path fill="#949494" opacity="1.000000" stroke="none" 
	d="
M131.675644,36.891132 
	C131.008133,36.349918 130.767853,35.897141 130.563583,35.182343 
	C130.918228,34.613510 131.236893,34.306690 131.758545,33.737843 
	C132.294662,34.397728 132.627777,35.319641 132.967010,36.642239 
	C132.683060,37.021805 132.392975,37.000687 131.675644,36.891132 
z"/>
</svg>