<svg version="1.1" id="Layer_1" xmlns="http://www.w3.org/2000/svg" xmlns:xlink="http://www.w3.org/1999/xlink" x="0px" y="0px"
	 width="100%" viewBox="0 0 136 221" enable-background="new 0 0 136 221" xml:space="preserve">
<path fill="#010101" opacity="1.000000" stroke="none" 
	d="
M54.000000,222.000000 
	C36.012260,222.000000 18.524521,222.000000 1.018391,222.000000 
	C1.018391,148.397202 1.018391,74.794411 1.018391,1.095806 
	C46.237522,1.095806 91.475311,1.095806 136.856552,1.095806 
	C136.856552,74.666451 136.856552,148.333191 136.856552,222.000000 
	C109.461388,222.000000 81.980690,222.000000 54.000000,222.000000 
M52.035900,67.503632 
	C51.740948,67.793465 51.445995,68.083305 51.151047,68.373138 
	C51.811653,68.499321 52.472256,68.625504 53.610085,69.055626 
	C54.043461,69.400566 54.476833,69.745499 54.963882,70.081810 
	C54.963882,70.081810 54.950050,70.029236 55.052044,70.572227 
	C55.366856,70.655609 55.681667,70.738998 56.557964,71.020561 
	C57.026100,71.352127 57.494240,71.683685 58.041370,72.607170 
	C57.671360,73.058693 57.301350,73.510223 56.301517,74.312103 
	C52.700348,80.743919 53.264679,87.630928 53.760487,94.655861 
	C60.365330,94.655861 66.641922,94.655861 73.844009,94.827950 
	C77.787117,94.827950 81.730225,94.827950 86.486885,94.827950 
	C85.930183,91.491135 85.469414,88.729263 85.135506,85.256340 
	C84.743523,83.174652 84.351540,81.092964 84.601692,78.920982 
	C84.276299,78.249138 83.950905,77.577301 83.667198,76.168900 
	C83.799942,75.446854 83.932693,74.724808 84.595192,73.979492 
	C84.827843,73.839890 85.060493,73.700287 85.293152,73.560699 
	C84.838150,73.376167 84.383156,73.191643 83.640038,72.653534 
	C83.640038,72.653534 83.611336,72.198326 84.302849,71.812263 
	C84.541969,70.271141 84.781090,68.730019 85.692665,66.960907 
	C86.002419,66.436676 86.312172,65.912453 86.621925,65.388222 
	C86.239716,65.214050 85.857506,65.039879 85.475296,64.865707 
	C85.251358,65.570671 85.027420,66.275627 84.112755,66.975662 
	C82.847206,65.966690 81.581657,64.957718 80.248985,63.376484 
	C80.465363,62.895706 80.681740,62.414928 81.703293,61.978336 
	C82.772865,61.995132 83.842430,62.011932 85.055122,62.622105 
	C85.605904,62.858833 86.156677,63.095562 86.707458,63.332291 
	C85.626022,62.463261 88.650246,59.296230 84.042389,59.990040 
	C82.998047,60.012707 81.953705,60.035370 80.364517,59.767029 
	C78.813652,60.291130 77.262787,60.815235 75.426010,61.435963 
	C73.967438,60.750336 72.132156,59.887634 69.890930,58.834110 
	C69.890930,60.820068 69.890930,62.454624 69.404335,63.661640 
	C69.146484,62.874222 68.888634,62.086803 68.223305,61.093517 
	C68.243843,61.081367 68.275970,61.053894 68.283203,61.059357 
	C68.398628,61.146645 68.510880,61.238136 68.091843,61.179363 
	C67.919609,61.114082 67.747383,61.048805 67.500710,61.052250 
	C67.500710,61.052250 67.577133,60.996006 67.580551,60.206429 
	C67.373741,59.774231 67.166931,59.342033 67.507431,58.937946 
	C67.332939,58.636063 67.158440,58.334179 67.000023,57.997364 
	C67.000023,57.997364 66.964767,58.012867 67.004768,57.571060 
	C67.004768,57.571060 66.918289,57.135834 67.235008,56.612614 
	C67.214066,55.747894 67.193123,54.883179 66.910690,53.259453 
	C66.430023,53.160389 65.949356,53.061325 65.454910,52.899189 
	C65.454910,52.899189 65.401009,52.824551 64.965820,52.385094 
	C64.810379,52.249680 64.654930,52.114265 64.809258,51.744370 
	C64.954361,51.515057 65.016724,51.265072 64.792992,50.385216 
	C63.843124,49.965908 62.893257,49.546604 61.486610,49.017776 
	C61.486610,49.017776 61.017418,48.995445 61.137436,48.335522 
	C61.749786,47.220654 62.362133,46.105782 63.608559,44.717819 
	C63.189114,40.304970 65.791153,37.878536 68.619888,34.773209 
	C72.381439,30.643829 77.056419,33.066212 81.199219,31.367365 
	C72.789650,25.957363 59.883377,33.284321 58.090851,44.606213 
	C58.773582,46.100094 59.456314,47.593971 59.786312,49.682098 
	C58.181942,50.495098 56.577572,51.308098 54.432476,52.077805 
	C54.239017,52.372883 54.045555,52.667961 53.280952,53.206646 
	C53.477749,53.491787 53.674545,53.776924 53.915981,54.875252 
	C53.933392,56.580471 53.950798,58.285686 53.352268,60.157143 
	C53.160908,60.757935 52.969547,61.358723 52.139481,62.074577 
	C52.405155,63.881756 52.670826,65.688934 52.737885,67.577225 
	C52.737885,67.577225 52.720901,67.791084 52.035900,67.503632 
M92.060516,100.537766 
	C93.969185,100.455963 95.877846,100.374161 98.579124,100.598221 
	C100.066353,100.532524 101.553581,100.466827 103.297379,100.389801 
	C102.019829,96.930450 101.156998,94.153778 99.910004,91.561935 
	C99.636719,90.993904 97.995399,91.084061 96.314049,91.093559 
	C94.504692,93.658257 92.695335,96.222954 90.410515,99.141258 
	C90.688293,99.573479 90.966064,100.005699 92.060516,100.537766 
M38.875668,100.533661 
	C40.521191,100.463570 42.166718,100.393478 44.590698,100.609138 
	C46.184925,100.609138 47.779152,100.609138 51.056820,100.609138 
	C48.148148,97.038742 46.080124,94.500244 43.378567,91.643219 
	C42.246273,92.229240 40.674942,92.530579 40.072262,93.460022 
	C38.782055,95.449753 37.992588,97.764175 36.707657,100.255043 
	C37.155621,100.317520 37.603580,100.379997 38.875668,100.533661 
M70.809441,182.502625 
	C70.381439,182.659012 69.953445,182.815384 68.787552,182.950363 
	C67.859962,184.169098 66.117104,185.405380 66.142891,186.603607 
	C66.268936,192.458466 66.866806,198.303192 67.311150,204.865265 
	C67.953987,206.844986 68.596825,208.824707 69.239662,210.804428 
	C69.823051,210.716446 70.406441,210.628464 70.989830,210.540482 
	C74.072876,202.803711 75.620743,194.782196 74.022827,186.364044 
	C73.775917,185.063309 72.070457,184.039429 71.007423,182.949173 
	C71.007423,182.949173 71.070595,182.977859 70.809441,182.502625 
M43.065277,145.009171 
	C40.493851,145.009171 37.922428,145.009171 35.148293,145.009171 
	C35.148293,151.252228 35.148293,157.104416 35.001968,163.755951 
	C35.068748,164.539642 35.135532,165.323334 35.221828,166.336014 
	C45.099880,162.565872 47.889393,153.916504 51.458260,145.133606 
	C48.536766,145.133606 46.255013,145.133606 43.065277,145.009171 
M95.853233,159.985321 
	C98.553566,162.188370 101.253899,164.391434 104.678558,167.185425 
	C104.678558,158.951202 104.678558,152.022720 104.678558,145.161957 
	C102.213524,145.161957 100.079529,145.161957 97.060051,145.012146 
	C94.445068,145.012146 91.830086,145.012146 87.871284,145.012146 
	C90.725166,150.302383 93.165520,154.826080 95.853233,159.985321 
M44.873001,121.997726 
	C46.810135,121.997726 48.747272,121.997726 51.666706,121.997726 
	C50.940311,118.224159 49.899994,115.068069 49.845379,111.895020 
	C49.792229,108.807137 50.748569,105.701881 51.337299,102.147614 
	C48.209549,102.147614 46.092846,102.147614 43.084965,102.013039 
	C41.440399,102.009789 39.681187,101.644470 38.187428,102.117477 
	C36.985607,102.498032 35.269699,103.850891 35.219830,104.844505 
	C34.935360,110.512398 35.081779,116.201912 35.081779,121.852379 
	C38.411118,121.852379 41.193680,121.852379 44.873001,121.997726 
M97.051628,102.024864 
	C94.474007,102.024864 91.896393,102.024864 89.375885,102.024864 
	C89.375885,109.110634 89.375885,115.466705 89.375885,121.821678 
	C92.347153,121.821678 95.143883,121.821678 98.841301,121.978180 
	C100.768646,121.978180 102.695992,121.978180 104.993652,121.978180 
	C104.993652,119.138481 105.183197,116.682076 104.918495,114.275642 
	C104.773010,112.953087 103.109123,111.486458 103.415710,110.474274 
	C105.976715,102.019333 105.868484,101.740715 97.051628,102.024864 
M44.695026,143.554596 
	C46.647549,143.554596 48.600067,143.554596 50.700943,143.554596 
	C50.700943,136.628952 50.700943,130.135284 50.700943,123.313942 
	C48.213768,123.477058 46.096020,123.615952 43.141861,123.542847 
	C40.536697,123.542847 37.931530,123.542847 35.245018,123.542847 
	C35.245018,130.317749 35.245018,136.716354 35.245018,143.277344 
	C38.266781,143.277344 41.052837,143.277344 44.695026,143.554596 
M97.139992,123.571091 
	C94.531158,123.571091 91.922318,123.571091 89.215866,123.571091 
	C89.215866,130.311371 89.215866,136.713226 89.215866,143.224091 
	C92.243080,143.224091 95.027359,143.224091 98.667679,143.518402 
	C100.728508,143.518402 102.789330,143.518402 104.682404,143.518402 
	C104.682404,136.395569 104.682404,130.008728 104.682404,123.278526 
	C102.191292,123.478279 100.079659,123.647598 97.139992,123.571091 
M74.941231,106.912384 
	C75.976654,108.195168 77.358322,109.330399 77.980118,110.789459 
	C79.600090,114.590721 82.176422,115.417397 86.168053,113.916824 
	C86.168053,108.106888 86.168053,102.244110 86.168053,96.346405 
	C81.504860,96.346405 77.211395,96.346405 72.007439,96.166138 
	C65.941811,96.166138 59.876186,96.166138 53.869873,96.166138 
	C53.869873,102.594917 53.869873,108.343384 53.869873,114.251366 
	C57.742264,114.923729 60.668606,114.831863 62.153072,110.679688 
	C62.668903,109.236862 64.199142,108.156708 65.160751,107.883026 
	C66.550934,114.560081 71.347633,109.262444 74.286880,111.270699 
	C74.286880,109.216362 74.286880,107.952538 74.941231,106.912384 
M58.519665,169.576004 
	C58.519665,172.813324 58.519665,176.050644 58.519665,179.169693 
	C66.617310,179.169693 73.976036,179.169693 81.869118,179.169693 
	C81.566452,175.408981 81.304314,172.151825 81.052078,168.295822 
	C81.047714,167.896576 81.043343,167.497314 81.474594,166.390259 
	C81.474594,158.499374 81.474594,150.608490 81.474594,142.855774 
	C73.375137,142.855774 66.015846,142.855774 58.960957,142.855774 
	C58.960957,151.256531 58.960957,159.177292 58.948891,167.696838 
	C58.951843,168.096130 58.954796,168.495438 58.519665,169.576004 
M56.663708,182.454132 
	C52.493565,185.220734 52.672821,189.222504 53.515533,193.857758 
	C56.625729,194.341995 59.764812,194.830719 62.385098,195.238693 
	C63.424885,190.061661 64.329346,185.558411 65.309700,180.677292 
	C62.616734,181.051666 59.728073,181.453247 56.045544,181.051605 
	C56.045544,167.567764 56.045544,154.083939 56.045544,139.206207 
	C54.609280,142.983932 53.623779,145.425476 52.748119,147.905807 
	C49.299442,157.674255 43.798370,165.542313 33.970440,170.049286 
	C30.260096,171.750824 27.025564,174.576172 23.765730,177.133453 
	C22.366013,178.231537 21.454363,179.951782 20.091625,181.680237 
	C32.981861,181.680237 44.992764,181.680237 56.663708,182.454132 
M82.433495,181.594101 
	C79.720192,181.324463 77.006882,181.054825 74.817467,180.837234 
	C75.723244,185.687424 76.569809,190.220566 77.514053,195.276764 
	C80.291603,194.823303 83.443878,194.308670 86.354057,193.833557 
	C87.808876,188.751083 86.682846,184.940292 83.995987,181.084442 
	C93.104393,181.395599 102.212166,181.727203 111.321587,182.005264 
	C114.008873,182.087296 116.700790,182.017899 119.390587,182.017899 
	C119.642799,181.355469 119.895012,180.693054 120.147224,180.030624 
	C114.788338,176.286301 109.699615,172.050064 104.002739,168.921127 
	C96.748466,164.936813 91.823471,159.349823 88.887505,151.762039 
	C87.296379,147.649902 85.595833,143.580109 83.393936,138.127487 
	C83.393936,141.383865 83.396767,143.123337 83.393478,144.862793 
	C83.370117,157.242722 83.345512,169.622635 82.433495,181.594101 
M58.404320,139.108994 
	C59.169842,139.745026 59.923878,140.916443 60.702682,140.933151 
	C67.482147,141.078598 74.266060,141.017090 81.981194,141.017090 
	C81.410744,134.494217 81.368889,128.367233 80.246513,122.445023 
	C78.345627,112.414986 77.709755,112.377106 67.529213,112.276932 
	C64.028923,112.242493 61.900272,113.611031 61.375134,116.645287 
	C60.138359,123.791420 59.350021,131.015152 58.404320,139.108994 
M99.527405,184.039413 
	C96.117973,184.039413 92.708549,184.039413 88.935654,184.039413 
	C89.062263,186.782684 89.149902,188.681702 89.259689,191.060532 
	C100.442467,190.787109 110.935707,189.866928 121.010178,186.458878 
	C120.971436,185.652420 120.932701,184.845963 120.893959,184.039505 
	C114.102806,184.039505 107.311646,184.039505 99.527405,184.039413 
M19.213675,185.120987 
	C20.433573,186.073700 21.523542,187.520813 22.898832,187.882233 
	C26.394176,188.800797 29.996107,189.431656 33.594013,189.814957 
	C39.243801,190.416840 44.925343,190.720657 50.609314,191.151917 
	C50.609314,188.264023 50.609314,186.378113 50.609314,184.356659 
	C39.993374,184.356659 29.762817,184.356659 19.213675,185.120987 
M107.996826,155.481445 
	C107.996826,138.843002 107.996826,122.204544 107.996826,105.566093 
	C107.768799,105.569176 107.540771,105.572250 107.312744,105.575325 
	C107.312744,126.173882 107.312744,146.772446 107.312744,167.371002 
	C107.540771,167.373581 107.768799,167.376175 107.996826,167.378769 
	C107.996826,163.743164 107.996826,160.107559 107.996826,155.481445 
M32.003181,140.500000 
	C32.003181,149.460205 32.003181,158.420425 32.003181,167.380630 
	C32.230988,167.375443 32.458794,167.370255 32.686600,167.365051 
	C32.686600,147.137177 32.686600,126.909302 32.686600,106.681427 
	C32.458794,106.680969 32.230988,106.680504 32.003181,106.680038 
	C32.003181,117.620026 32.003181,128.560013 32.003181,140.500000 
M84.706078,133.687286 
	C85.008141,134.298019 85.310211,134.908752 85.859337,136.019028 
	C85.859337,128.930389 85.859337,122.512260 85.859337,115.934006 
	C84.059090,116.024162 82.591179,116.097679 81.163750,116.169159 
	C82.267136,121.899368 83.329575,127.416908 84.706078,133.687286 
M56.978828,125.519920 
	C57.605888,122.467224 58.232948,119.414528 58.894650,116.193192 
	C57.326218,116.193192 55.755066,116.193192 53.800056,116.193192 
	C54.084732,121.826088 53.244507,127.309387 54.297909,132.636383 
	C54.772449,132.617126 55.246986,132.597885 55.721527,132.578629 
	C56.109947,130.499786 56.498367,128.420929 56.978828,125.519920 
M80.115097,36.176994 
	C82.876022,39.441616 85.636940,42.706238 89.425407,47.185871 
	C88.378883,42.910156 88.214943,39.236084 86.496773,36.559826 
	C85.705070,35.326668 81.871857,36.046165 80.115097,36.176994 
z"/>
<path fill="#E55261" opacity="1.000000" stroke="none" 
	d="
M83.321297,182.002563 
	C83.345512,169.622635 83.370117,157.242722 83.393478,144.862793 
	C83.396767,143.123337 83.393936,141.383865 83.393936,138.127487 
	C85.595833,143.580109 87.296379,147.649902 88.887505,151.762039 
	C91.823471,159.349823 96.748466,164.936813 104.002739,168.921127 
	C109.699615,172.050064 114.788338,176.286301 120.147224,180.030624 
	C119.895012,180.693054 119.642799,181.355469 119.390587,182.017899 
	C116.700790,182.017899 114.008873,182.087296 111.321587,182.005264 
	C102.212166,181.727203 93.104393,181.395599 83.617081,181.466095 
	C83.238174,181.847748 83.321297,182.002563 83.321297,182.002563 
z"/>
<path fill="#E55261" opacity="1.000000" stroke="none" 
	d="
M57.003666,181.680237 
	C44.992764,181.680237 32.981861,181.680237 20.091625,181.680237 
	C21.454363,179.951782 22.366013,178.231537 23.765730,177.133453 
	C27.025564,174.576172 30.260096,171.750824 33.970440,170.049286 
	C43.798370,165.542313 49.299442,157.674255 52.748119,147.905807 
	C53.623779,145.425476 54.609280,142.983932 56.045544,139.206207 
	C56.045544,154.083939 56.045544,167.567764 56.446938,181.407547 
	C56.848331,181.763489 57.003666,181.680237 57.003666,181.680237 
z"/>
<path fill="#E1515F" opacity="1.000000" stroke="none" 
	d="
M58.960957,167.098053 
	C58.960957,159.177292 58.960957,151.256531 58.960957,142.855774 
	C66.015846,142.855774 73.375137,142.855774 81.474594,142.855774 
	C81.474594,150.608490 81.474594,158.499374 80.785934,166.719269 
	C73.051842,167.064880 66.006401,167.081467 58.960957,167.098053 
z"/>
<path fill="#F7F7F7" opacity="1.000000" stroke="none" 
	d="
M72.918510,94.655861 
	C66.641922,94.655861 60.365330,94.655861 53.760487,94.655861 
	C53.264679,87.630928 52.700348,80.743919 56.956024,74.309235 
	C60.605747,75.178139 63.600960,76.049911 66.596169,76.921684 
	C66.779564,76.294518 66.962959,75.667351 67.146355,75.040192 
	C64.085030,74.031876 61.023705,73.023560 57.962379,72.015244 
	C57.494240,71.683685 57.026100,71.352127 56.151573,70.731262 
	C55.531887,70.204704 55.266846,70.067123 54.950050,70.029236 
	C54.950050,70.029236 54.963882,70.081810 54.977341,69.778778 
	C55.003834,69.269478 55.016869,69.063225 55.362015,68.770782 
	C56.095932,67.695549 56.497742,66.706490 57.048302,66.023132 
	C58.421471,67.225670 59.645889,68.122498 61.188560,69.290237 
	C65.626564,70.110191 69.746323,70.659225 73.878586,71.152130 
	C73.891098,71.095993 73.777779,71.115776 73.893555,71.364212 
	C74.313187,71.806168 74.617050,71.999695 74.941696,72.144272 
	C74.962479,72.095322 74.857697,72.076996 74.917404,72.394302 
	C75.310783,73.196266 75.644455,73.680939 75.977295,74.565094 
	C74.769821,77.170731 73.563171,79.376884 72.236153,81.803108 
	C73.170944,82.211327 75.041153,83.028030 76.654449,84.098114 
	C74.941269,87.686142 71.793236,90.449608 72.918510,94.655861 
z"/>
<path fill="#E0515F" opacity="1.000000" stroke="none" 
	d="
M58.392292,138.658249 
	C59.350021,131.015152 60.138359,123.791420 61.375134,116.645287 
	C61.900272,113.611031 64.028923,112.242493 67.529213,112.276932 
	C77.709755,112.377106 78.345627,112.414986 80.246513,122.445023 
	C81.368889,128.367233 81.410744,134.494217 81.981194,141.017090 
	C74.266060,141.017090 67.482147,141.078598 60.702682,140.933151 
	C59.923878,140.916443 59.169842,139.745026 58.392292,138.658249 
M71.788345,129.257111 
	C72.441666,129.164673 73.314682,129.308105 73.710594,128.939316 
	C75.502281,127.270439 77.159134,125.456818 78.864540,123.695312 
	C77.123238,122.202423 75.598091,120.043167 73.584404,119.389954 
	C71.213524,118.620857 68.231415,118.565483 65.868416,119.315765 
	C64.003326,119.907951 61.936455,121.969307 61.393856,123.802742 
	C61.086906,124.839905 63.674736,126.733780 65.396751,128.746658 
	C67.265022,128.889618 69.133293,129.032578 71.788345,129.257111 
z"/>
<path fill="#F6F6F6" opacity="1.000000" stroke="none" 
	d="
M65.266075,106.910912 
	C64.199142,108.156708 62.668903,109.236862 62.153072,110.679688 
	C60.668606,114.831863 57.742264,114.923729 53.869873,114.251366 
	C53.869873,108.343384 53.869873,102.594917 53.869873,96.166138 
	C59.876186,96.166138 65.941811,96.166138 72.474609,96.677414 
	C72.962311,99.733467 72.982834,102.278236 72.644547,104.744537 
	C69.138260,102.805779 67.182953,104.670715 65.307053,106.900230 
	C65.273476,106.911774 65.266075,106.910912 65.266075,106.910912 
z"/>
<path fill="#DD505E" opacity="1.000000" stroke="none" 
	d="
M81.042175,168.894669 
	C81.304314,172.151825 81.566452,175.408981 81.869118,179.169693 
	C73.976036,179.169693 66.617310,179.169693 58.519665,179.169693 
	C58.519665,176.050644 58.519665,172.813324 59.209827,169.259644 
	C66.947388,168.927078 73.994781,168.910873 81.042175,168.894669 
z"/>
<path fill="#B1BDDC" opacity="1.000000" stroke="none" 
	d="
M73.003349,104.823006 
	C72.982834,102.278236 72.962311,99.733467 72.929855,96.767548 
	C77.211395,96.346405 81.504860,96.346405 86.168053,96.346405 
	C86.168053,102.244110 86.168053,108.106888 86.168053,113.916824 
	C82.176422,115.417397 79.600090,114.590721 77.980118,110.789459 
	C77.358322,109.330399 75.976654,108.195168 74.583328,106.825546 
	C74.225418,106.738716 74.206284,106.816887 74.204147,106.513954 
	C73.802452,105.748352 73.402901,105.285675 73.003349,104.823006 
z"/>
<path fill="#FDFDFE" opacity="1.000000" stroke="none" 
	d="
M97.811630,143.224091 
	C95.027359,143.224091 92.243080,143.224091 89.215866,143.224091 
	C89.215866,136.713226 89.215866,130.311371 89.215866,123.571091 
	C91.922318,123.571091 94.531158,123.571091 97.571182,124.173958 
	C97.938797,130.925919 97.875214,137.074997 97.811630,143.224091 
z"/>
<path fill="#FFFFFF" opacity="1.000000" stroke="none" 
	d="
M43.838898,143.277344 
	C41.052837,143.277344 38.266781,143.277344 35.245018,143.277344 
	C35.245018,136.716354 35.245018,130.317749 35.245018,123.542847 
	C37.931530,123.542847 40.536697,123.542847 43.612370,124.130569 
	C44.001553,130.904648 43.920223,137.090988 43.838898,143.277344 
z"/>
<path fill="#152D4D" opacity="1.000000" stroke="none" 
	d="
M100.023949,184.039459 
	C107.311646,184.039505 114.102806,184.039505 120.893959,184.039505 
	C120.932701,184.845963 120.971436,185.652420 121.010178,186.458878 
	C110.935707,189.866928 100.442467,190.787109 89.259689,191.060532 
	C89.149902,188.681702 89.062263,186.782684 88.935654,184.039413 
	C92.708549,184.039413 96.117973,184.039413 100.023949,184.039459 
z"/>
<path fill="#173151" opacity="1.000000" stroke="none" 
	d="
M19.372967,184.738831 
	C29.762817,184.356659 39.993374,184.356659 50.609314,184.356659 
	C50.609314,186.378113 50.609314,188.264023 50.609314,191.151917 
	C44.925343,190.720657 39.243801,190.416840 33.594013,189.814957 
	C29.996107,189.431656 26.394176,188.800797 22.898832,187.882233 
	C21.523542,187.520813 20.433573,186.073700 19.372967,184.738831 
z"/>
<path fill="#FDFDFE" opacity="1.000000" stroke="none" 
	d="
M97.940613,121.821678 
	C95.143883,121.821678 92.347153,121.821678 89.375885,121.821678 
	C89.375885,115.466705 89.375885,109.110634 89.375885,102.024864 
	C91.896393,102.024864 94.474007,102.024864 97.460281,102.411301 
	C98.067390,103.556259 98.265839,104.314774 98.503052,105.330505 
	C98.351463,106.063942 98.161087,106.540161 97.963547,107.480560 
	C97.951126,112.570389 97.945869,117.196037 97.940613,121.821678 
z"/>
<path fill="#FFFFFF" opacity="1.000000" stroke="none" 
	d="
M43.976242,121.852379 
	C41.193680,121.852379 38.411118,121.852379 35.081779,121.852379 
	C35.081779,116.201912 34.935360,110.512398 35.219830,104.844505 
	C35.269699,103.850891 36.985607,102.498032 38.187428,102.117477 
	C39.681187,101.644470 41.440399,102.009789 43.556358,102.538536 
	C44.010582,109.326813 43.993412,115.589600 43.976242,121.852379 
M40.482033,105.821907 
	C41.039516,105.284256 41.597000,104.746605 42.154484,104.208954 
	C41.816319,103.953453 41.478149,103.697952 41.139984,103.442451 
	C40.829952,104.051498 40.519924,104.660545 40.482033,105.821907 
M37.779198,105.794014 
	C38.007015,105.706314 38.234833,105.618607 38.462654,105.530914 
	C38.156979,105.509262 37.851303,105.487610 37.779198,105.794014 
z"/>
<path fill="#A8B3D1" opacity="1.000000" stroke="none" 
	d="
M98.239655,143.371246 
	C97.875214,137.074997 97.938797,130.925919 97.985199,124.296875 
	C100.079659,123.647598 102.191292,123.478279 104.682404,123.278526 
	C104.682404,130.008728 104.682404,136.395569 104.682404,143.518402 
	C102.789330,143.518402 100.728508,143.518402 98.239655,143.371246 
z"/>
<path fill="#AAB5D2" opacity="1.000000" stroke="none" 
	d="
M44.266960,143.415970 
	C43.920223,137.090988 44.001553,130.904648 44.030575,124.236565 
	C46.096020,123.615952 48.213768,123.477058 50.700943,123.313942 
	C50.700943,130.135284 50.700943,136.628952 50.700943,143.554596 
	C48.600067,143.554596 46.647549,143.554596 44.266960,143.415970 
z"/>
<path fill="#B2BFE0" opacity="1.000000" stroke="none" 
	d="
M97.945534,145.161957 
	C100.079529,145.161957 102.213524,145.161957 104.678558,145.161957 
	C104.678558,152.022720 104.678558,158.951202 104.678558,167.185425 
	C101.253899,164.391434 98.553566,162.188370 96.055344,159.404358 
	C96.820152,154.269592 97.382843,149.715775 97.945534,145.161957 
z"/>
<path fill="#FDFDFE" opacity="1.000000" stroke="none" 
	d="
M35.148293,162.956589 
	C35.148293,157.104416 35.148293,151.252228 35.148293,145.009171 
	C37.922428,145.009171 40.493851,145.009171 43.561432,145.521332 
	C44.199966,159.576523 44.096470,159.773117 35.148293,162.956589 
z"/>
<path fill="#DBEEF6" opacity="1.000000" stroke="none" 
	d="
M56.833687,182.067184 
	C57.003666,181.680237 56.848331,181.763489 56.843872,181.809143 
	C59.728073,181.453247 62.616734,181.051666 65.309700,180.677292 
	C64.329346,185.558411 63.424885,190.061661 62.385098,195.238693 
	C59.764812,194.830719 56.625729,194.341995 53.515533,193.857758 
	C52.672821,189.222504 52.493565,185.220734 56.833687,182.067184 
z"/>
<path fill="#DAECF5" opacity="1.000000" stroke="none" 
	d="
M82.877396,181.798340 
	C83.321297,182.002563 83.238174,181.847748 83.192764,181.843002 
	C86.682846,184.940292 87.808876,188.751083 86.354057,193.833557 
	C83.443878,194.308670 80.291603,194.823303 77.514053,195.276764 
	C76.569809,190.220566 75.723244,185.687424 74.817467,180.837234 
	C77.006882,181.054825 79.720192,181.324463 82.877396,181.798340 
z"/>
<path fill="#B7C4E5" opacity="1.000000" stroke="none" 
	d="
M44.424622,121.925049 
	C43.993412,115.589600 44.010582,109.326813 44.001945,102.605820 
	C46.092846,102.147614 48.209549,102.147614 51.337299,102.147614 
	C50.748569,105.701881 49.792229,108.807137 49.845379,111.895020 
	C49.899994,115.068069 50.940311,118.224159 51.666706,121.997726 
	C48.747272,121.997726 46.810135,121.997726 44.424622,121.925049 
z"/>
<path fill="#ECEBEC" opacity="1.000000" stroke="none" 
	d="
M66.960121,58.909836 
	C67.166931,59.342033 67.373741,59.774231 67.359688,60.579208 
	C67.038361,61.103825 66.937889,61.255661 66.837418,61.407494 
	C67.083328,61.266171 67.329239,61.124847 67.575150,60.983521 
	C67.747383,61.048805 67.919609,61.114082 68.316147,61.235329 
	C68.540443,61.291298 68.630775,61.299385 68.630775,61.299385 
	C68.888634,62.086803 69.146484,62.874222 69.631844,63.845772 
	C69.859352,64.029907 69.804726,64.069237 69.805222,64.405548 
	C69.820145,65.190567 69.834579,65.639275 69.815292,66.135834 
	C69.781563,66.183678 69.805504,66.298264 69.528030,66.493118 
	C68.491119,67.055405 67.731674,67.422821 66.719475,67.551788 
	C63.975822,66.210793 61.484928,65.108253 59.022575,63.673561 
	C59.607082,62.156075 60.163044,60.970734 60.896919,59.406071 
	C58.914806,60.069519 57.532200,60.532299 56.039040,60.764473 
	C55.649277,60.369076 55.370068,60.204288 54.810505,60.020130 
	C54.342838,59.997471 54.155521,59.994190 53.968204,59.990906 
	C53.950798,58.285686 53.933392,56.580471 54.230614,54.442863 
	C56.155857,54.477219 57.766460,54.943954 59.394623,55.415783 
	C59.888390,54.653160 60.406410,53.853085 61.069962,53.301048 
	C61.771103,54.069820 62.326714,54.590549 62.955242,55.452538 
	C64.340363,56.533489 65.652565,57.273178 66.964767,58.012867 
	C66.964767,58.012867 67.000023,57.997364 66.946838,58.233124 
	C66.893661,58.468880 66.960121,58.909836 66.960121,58.909836 
M64.537704,59.654793 
	C64.537704,59.654793 64.673111,59.441490 64.673111,59.441490 
	C64.673111,59.441490 64.389992,59.465614 64.537704,59.654793 
z"/>
<path fill="#B7C4E5" opacity="1.000000" stroke="none" 
	d="
M98.390953,121.899933 
	C97.945869,117.196037 97.951126,112.570389 98.281021,107.454620 
	C99.111687,106.374954 99.617699,105.785408 100.411346,105.291534 
	C101.405457,105.343048 102.118759,105.333145 102.806732,105.196121 
	C102.868263,105.183861 102.765602,104.347321 102.739197,103.893600 
	C101.794800,104.221207 100.850410,104.548813 99.546150,104.929764 
	C98.945610,105.013168 98.704948,105.043228 98.464279,105.073288 
	C98.265839,104.314774 98.067390,103.556259 97.904213,102.487968 
	C105.868484,101.740715 105.976715,102.019333 103.415710,110.474274 
	C103.109123,111.486458 104.773010,112.953087 104.918495,114.275642 
	C105.183197,116.682076 104.993652,119.138481 104.993652,121.978180 
	C102.695992,121.978180 100.768646,121.978180 98.390953,121.899933 
z"/>
<path fill="#DCDADE" opacity="1.000000" stroke="none" 
	d="
M76.911362,83.844742 
	C75.041153,83.028030 73.170944,82.211327 72.236153,81.803108 
	C73.563171,79.376884 74.769821,77.170731 76.323418,74.425659 
	C78.984016,73.323936 81.297676,72.761131 83.611336,72.198326 
	C83.611336,72.198326 83.640038,72.653534 83.720200,73.092766 
	C83.888718,73.688919 83.977074,73.845840 84.065437,74.002762 
	C83.932693,74.724808 83.799942,75.446854 83.434189,76.716248 
	C83.453972,77.846169 83.706757,78.428726 83.959549,79.011284 
	C84.351540,81.092964 84.743523,83.174652 84.760132,85.715263 
	C81.893623,85.397705 79.402496,84.621223 76.911362,83.844742 
z"/>
<path fill="#B1BDDC" opacity="1.000000" stroke="none" 
	d="
M76.654449,84.098114 
	C79.402496,84.621223 81.893623,85.397705 84.696701,86.070786 
	C85.469414,88.729263 85.930183,91.491135 86.486885,94.827950 
	C81.730225,94.827950 77.787117,94.827950 73.381256,94.741905 
	C71.793236,90.449608 74.941269,87.686142 76.654449,84.098114 
z"/>
<path fill="#245B88" opacity="1.000000" stroke="none" 
	d="
M71.039513,182.887527 
	C72.070457,184.039429 73.775917,185.063309 74.022827,186.364044 
	C75.620743,194.782196 74.072876,202.803711 70.989830,210.540482 
	C70.406441,210.628464 69.823051,210.716446 69.239662,210.804428 
	C68.596825,208.824707 67.953987,206.844986 67.645416,204.382156 
	C68.999626,196.895203 70.019569,189.891373 71.039513,182.887527 
z"/>
<path fill="#D0D0D1" opacity="1.000000" stroke="none" 
	d="
M58.209702,43.992100 
	C59.883377,33.284321 72.789650,25.957363 81.199219,31.367365 
	C77.056419,33.066212 72.381439,30.643829 68.619888,34.773209 
	C65.791153,37.878536 63.189114,40.304970 62.937866,44.852127 
	C60.914684,44.654991 59.562195,44.323544 58.209702,43.992100 
z"/>
<path fill="#B0BCDC" opacity="1.000000" stroke="none" 
	d="
M35.075130,163.356262 
	C44.096470,159.773117 44.199966,159.576523 44.015419,145.583557 
	C46.255013,145.133606 48.536766,145.133606 51.458260,145.133606 
	C47.889393,153.916504 45.099880,162.565872 35.221828,166.336014 
	C35.135532,165.323334 35.068748,164.539642 35.075130,163.356262 
z"/>
<path fill="#F7F7F7" opacity="1.000000" stroke="none" 
	d="
M97.502792,145.087051 
	C97.382843,149.715775 96.820152,154.269592 95.931671,159.086594 
	C93.165520,154.826080 90.725166,150.302383 87.871284,145.012146 
	C91.830086,145.012146 94.445068,145.012146 97.502792,145.087051 
z"/>
<path fill="#192D45" opacity="1.000000" stroke="none" 
	d="
M69.805504,66.298264 
	C69.805504,66.298264 69.781563,66.183678 70.074158,65.988739 
	C70.179413,65.218948 69.992065,64.644089 69.804726,64.069237 
	C69.804726,64.069237 69.859352,64.029907 69.875137,64.059540 
	C69.890930,62.454624 69.890930,60.820068 69.890930,58.834110 
	C72.132156,59.887634 73.967438,60.750336 75.426010,61.435963 
	C77.262787,60.815235 78.813652,60.291130 80.654358,60.224907 
	C80.928833,61.099907 80.913475,61.517029 80.898117,61.934147 
	C80.681740,62.414928 80.465363,62.895706 80.137390,64.008102 
	C78.303101,67.118813 76.580399,69.597900 74.857697,72.076996 
	C74.857697,72.076996 74.962479,72.095322 74.847595,71.876785 
	C74.414398,71.477432 74.096085,71.296600 73.777779,71.115776 
	C73.777779,71.115776 73.891098,71.095993 73.874146,70.763687 
	C72.506630,69.053673 71.156067,67.675964 69.805504,66.298264 
z"/>
<path fill="#173151" opacity="1.000000" stroke="none" 
	d="
M71.023468,182.918350 
	C70.019569,189.891373 68.999626,196.895203 67.638748,204.025269 
	C66.866806,198.303192 66.268936,192.458466 66.142891,186.603607 
	C66.117104,185.405380 67.859962,184.169098 69.543777,182.972870 
	C70.556870,182.989532 70.813736,182.983704 71.070595,182.977859 
	C71.070595,182.977859 71.007423,182.949173 71.023468,182.918350 
z"/>
<path fill="#BFBFBF" opacity="1.000000" stroke="none" 
	d="
M107.996826,155.976700 
	C107.996826,160.107559 107.996826,163.743164 107.996826,167.378769 
	C107.768799,167.376175 107.540771,167.373581 107.312744,167.371002 
	C107.312744,146.772446 107.312744,126.173882 107.312744,105.575325 
	C107.540771,105.572250 107.768799,105.569176 107.996826,105.566093 
	C107.996826,122.204544 107.996826,138.843002 107.996826,155.976700 
z"/>
<path fill="#BFBFBF" opacity="1.000000" stroke="none" 
	d="
M32.003181,140.000000 
	C32.003181,128.560013 32.003181,117.620026 32.003181,106.680038 
	C32.230988,106.680504 32.458794,106.680969 32.686600,106.681427 
	C32.686600,126.909302 32.686600,147.137177 32.686600,167.365051 
	C32.458794,167.370255 32.230988,167.375443 32.003181,167.380630 
	C32.003181,158.420425 32.003181,149.460205 32.003181,140.000000 
z"/>
<path fill="#B0BCDC" opacity="1.000000" stroke="none" 
	d="
M84.549042,133.310867 
	C83.329575,127.416908 82.267136,121.899368 81.163750,116.169159 
	C82.591179,116.097679 84.059090,116.024162 85.859337,115.934006 
	C85.859337,122.512260 85.859337,128.930389 85.859337,136.019028 
	C85.310211,134.908752 85.008141,134.298019 84.549042,133.310867 
z"/>
<path fill="#F4F4F4" opacity="1.000000" stroke="none" 
	d="
M56.932808,125.931000 
	C56.498367,128.420929 56.109947,130.499786 55.721527,132.578629 
	C55.246986,132.597885 54.772449,132.617126 54.297909,132.636383 
	C53.244507,127.309387 54.084732,121.826088 53.800056,116.193192 
	C55.755066,116.193192 57.326218,116.193192 58.894650,116.193192 
	C58.232948,119.414528 57.605888,122.467224 56.932808,125.931000 
z"/>
<path fill="#090C10" opacity="1.000000" stroke="none" 
	d="
M74.917404,72.394302 
	C76.580399,69.597900 78.303101,67.118813 80.170959,64.294235 
	C81.581657,64.957718 82.847206,65.966690 84.527100,67.014816 
	C84.941444,67.053963 85.020210,67.188896 85.020210,67.188896 
	C84.781090,68.730019 84.541969,70.271141 83.957092,72.005295 
	C81.297676,72.761131 78.984016,73.323936 76.324234,74.026176 
	C75.644455,73.680939 75.310783,73.196266 74.917404,72.394302 
z"/>
<path fill="#F69124" opacity="1.000000" stroke="none" 
	d="
M43.812241,100.323387 
	C42.166718,100.393478 40.521191,100.463570 38.325138,100.340851 
	C37.534443,100.008873 37.275585,99.941399 36.998039,99.945618 
	C37.992588,97.764175 38.782055,95.449753 40.072262,93.460022 
	C40.674942,92.530579 42.246273,92.229240 43.707493,92.235077 
	C43.961693,95.325745 43.886967,97.824570 43.812241,100.323387 
z"/>
<path fill="#FC9019" opacity="1.000000" stroke="none" 
	d="
M97.786514,100.292358 
	C95.877846,100.374161 93.969185,100.455963 91.615479,100.208855 
	C91.075615,99.515846 90.980797,99.151756 90.885971,98.787659 
	C92.695335,96.222954 94.504692,93.658257 96.683601,91.390060 
	C97.297607,94.555153 97.542061,97.423759 97.786514,100.292358 
z"/>
<path fill="#A9A1AC" opacity="1.000000" stroke="none" 
	d="
M79.766426,36.028633 
	C81.871857,36.046165 85.705070,35.326668 86.496773,36.559826 
	C88.214943,39.236084 88.378883,42.910156 89.425407,47.185871 
	C85.636940,42.706238 82.876022,39.441616 79.766426,36.028633 
z"/>
<path fill="#3B161A" opacity="1.000000" stroke="none" 
	d="
M81.047127,168.595245 
	C73.994781,168.910873 66.947388,168.927078 59.428871,168.919006 
	C58.954796,168.495438 58.951843,168.096130 58.954926,167.397446 
	C66.006401,167.081467 73.051842,167.064880 80.568130,167.073181 
	C81.043343,167.497314 81.047714,167.896576 81.047127,168.595245 
z"/>
<path fill="#AD6827" opacity="1.000000" stroke="none" 
	d="
M98.182816,100.445290 
	C97.542061,97.423759 97.297607,94.555153 97.018616,91.278824 
	C97.995399,91.084061 99.636719,90.993904 99.910004,91.561935 
	C101.156998,94.153778 102.019829,96.930450 103.297379,100.389801 
	C101.553581,100.466827 100.066353,100.532524 98.182816,100.445290 
z"/>
<path fill="#152D4D" opacity="1.000000" stroke="none" 
	d="
M65.213409,107.396973 
	C65.266075,106.910912 65.273476,106.911774 65.730362,106.976624 
	C68.860252,106.966606 71.533272,106.891747 74.206284,106.816887 
	C74.206284,106.816887 74.225418,106.738716 74.256149,106.713715 
	C74.286880,107.952538 74.286880,109.216362 74.286880,111.270699 
	C71.347633,109.262444 66.550934,114.560081 65.213409,107.396973 
z"/>
<path fill="#AD6827" opacity="1.000000" stroke="none" 
	d="
M44.201469,100.466263 
	C43.886967,97.824570 43.961693,95.325745 44.024261,92.394333 
	C46.080124,94.500244 48.148148,97.038742 51.056820,100.609138 
	C47.779152,100.609138 46.184925,100.609138 44.201469,100.466263 
z"/>
<path fill="#D0D0D1" opacity="1.000000" stroke="none" 
	d="
M60.924431,53.053009 
	C60.406410,53.853085 59.888390,54.653160 59.394623,55.415783 
	C57.766460,54.943954 56.155857,54.477219 54.208294,54.036270 
	C53.674545,53.776924 53.477749,53.491787 53.798340,53.004913 
	C54.653534,52.690193 54.872692,52.462833 54.973202,52.121101 
	C56.577572,51.308098 58.181942,50.495098 59.938747,49.361786 
	C60.091183,49.041477 60.028152,49.063911 59.801197,49.373177 
	C60.024303,50.805962 60.474365,51.929485 60.924431,53.053009 
z"/>
<path fill="#DFDCE1" opacity="1.000000" stroke="none" 
	d="
M58.001877,72.311211 
	C61.023705,73.023560 64.085030,74.031876 67.146355,75.040192 
	C66.962959,75.667351 66.779564,76.294518 66.596169,76.921684 
	C63.600960,76.049911 60.605747,75.178139 57.270939,74.134064 
	C57.301350,73.510223 57.671360,73.058693 58.001877,72.311211 
z"/>
<path fill="#CDC9CF" opacity="1.000000" stroke="none" 
	d="
M58.150276,44.299156 
	C59.562195,44.323544 60.914684,44.654991 62.620831,44.988674 
	C62.362133,46.105782 61.749786,47.220654 60.828117,48.653732 
	C60.518799,48.971943 60.028152,49.063911 60.028152,49.063911 
	C60.028152,49.063911 60.091183,49.041477 60.115112,49.064667 
	C59.456314,47.593971 58.773582,46.100094 58.150276,44.299156 
z"/>
<path fill="#A9A1AC" opacity="1.000000" stroke="none" 
	d="
M59.801197,49.373177 
	C60.028152,49.063911 60.518799,48.971943 60.768108,48.983696 
	C61.017418,48.995445 61.486610,49.017776 61.751816,49.397930 
	C62.663052,50.184311 63.309090,50.590538 64.018990,51.282318 
	C64.221733,51.704865 64.360603,51.841858 64.499474,51.978851 
	C64.654930,52.114265 64.810379,52.249680 64.704857,52.761925 
	C64.288429,53.763500 64.132965,54.388245 63.702278,55.021637 
	C63.245472,55.057281 63.063896,55.084282 62.882324,55.111279 
	C62.326714,54.590549 61.771103,54.069820 61.069962,53.301048 
	C60.474365,51.929485 60.024303,50.805962 59.801197,49.373177 
z"/>
<path fill="#E6E4E7" opacity="1.000000" stroke="none" 
	d="
M53.660236,60.074024 
	C54.155521,59.994190 54.342838,59.997471 54.749397,60.432083 
	C54.949360,62.520313 54.930084,64.177216 54.539169,65.848053 
	C53.704414,64.561165 53.241299,63.260338 52.778187,61.959515 
	C52.969547,61.358723 53.160908,60.757935 53.660236,60.074024 
z"/>
<path fill="#21262B" opacity="1.000000" stroke="none" 
	d="
M52.458832,62.017044 
	C53.241299,63.260338 53.704414,64.561165 54.596886,66.199333 
	C55.023098,67.010704 55.019955,67.484718 54.690155,67.795532 
	C53.887829,67.586929 53.412167,67.541519 52.936501,67.496117 
	C52.670826,65.688934 52.405155,63.881756 52.458832,62.017044 
z"/>
<path fill="#21262B" opacity="1.000000" stroke="none" 
	d="
M63.977501,55.012985 
	C64.132965,54.388245 64.288429,53.763500 64.922455,52.981651 
	C65.401009,52.824551 65.454910,52.899189 65.689194,53.199425 
	C66.339706,53.672592 66.755943,53.845528 67.172180,54.018463 
	C67.193123,54.883179 67.214066,55.747894 66.791702,56.763771 
	C65.558098,56.280952 64.767799,55.646969 63.977501,55.012985 
z"/>
<path fill="#090C10" opacity="1.000000" stroke="none" 
	d="
M81.300705,61.956242 
	C80.913475,61.517029 80.928833,61.099907 80.926781,60.370411 
	C81.953705,60.035370 82.998047,60.012707 84.475639,60.320202 
	C84.909927,61.109818 84.910965,61.569275 84.912003,62.028732 
	C83.842430,62.011932 82.772865,61.995132 81.300705,61.956242 
z"/>
<path fill="#BFBFBF" opacity="1.000000" stroke="none" 
	d="
M63.702274,55.021633 
	C64.767799,55.646969 65.558098,56.280952 66.633347,57.025383 
	C66.918289,57.135834 67.004768,57.571060 66.984772,57.791962 
	C65.652565,57.273178 64.340363,56.533489 62.955242,55.452538 
	C63.063896,55.084282 63.245472,55.057281 63.702274,55.021633 
z"/>
<path fill="#192D45" opacity="1.000000" stroke="none" 
	d="
M84.983566,62.325417 
	C84.910965,61.569275 84.909927,61.109818 84.865646,60.307388 
	C88.650246,59.296230 85.626022,62.463261 86.707458,63.332291 
	C86.156677,63.095562 85.605904,62.858833 84.983566,62.325417 
z"/>
<path fill="#090C10" opacity="1.000000" stroke="none" 
	d="
M84.280617,78.966133 
	C83.706757,78.428726 83.453972,77.846169 83.413345,77.084534 
	C83.950905,77.577301 84.276299,78.249138 84.280617,78.966133 
z"/>
<path fill="#777578" opacity="1.000000" stroke="none" 
	d="
M63.955124,50.996761 
	C63.309090,50.590538 62.663052,50.184311 61.980202,49.452690 
	C62.893257,49.546604 63.843124,49.965908 64.634369,50.683861 
	C64.302208,50.987255 64.128670,50.992008 63.955124,50.996761 
z"/>
<path fill="#BFBFBF" opacity="1.000000" stroke="none" 
	d="
M52.837193,67.536667 
	C53.412167,67.541519 53.887829,67.586929 54.705276,68.019928 
	C55.047062,68.407524 55.029907,68.856964 55.029907,68.856964 
	C55.016869,69.063225 55.003834,69.269478 54.950504,69.783089 
	C54.476833,69.745499 54.043461,69.400566 53.349174,68.628891 
	C52.965809,68.065132 52.843353,67.928108 52.720901,67.791084 
	C52.720901,67.791084 52.737885,67.577225 52.837193,67.536667 
z"/>
<path fill="#192D45" opacity="1.000000" stroke="none" 
	d="
M84.872467,67.017273 
	C85.027420,66.275627 85.251358,65.570671 85.475296,64.865707 
	C85.857506,65.039879 86.239716,65.214050 86.621925,65.388222 
	C86.312172,65.912453 86.002419,66.436676 85.356438,67.074905 
	C85.020210,67.188896 84.941444,67.053963 84.872467,67.017273 
z"/>
<path fill="#AD6827" opacity="1.000000" stroke="none" 
	d="
M36.852844,100.100327 
	C37.275585,99.941399 37.534443,100.008873 37.913078,100.295258 
	C37.603580,100.379997 37.155621,100.317520 36.852844,100.100327 
z"/>
<path fill="#AD6827" opacity="1.000000" stroke="none" 
	d="
M90.648247,98.964462 
	C90.980797,99.151756 91.075615,99.515846 91.207138,100.158936 
	C90.966064,100.005699 90.688293,99.573479 90.648247,98.964462 
z"/>
<path fill="#777578" opacity="1.000000" stroke="none" 
	d="
M52.378403,67.647354 
	C52.843353,67.928108 52.965809,68.065132 53.110565,68.476929 
	C52.472256,68.625504 51.811653,68.499321 51.151047,68.373138 
	C51.445995,68.083305 51.740948,67.793465 52.378403,67.647354 
z"/>
<path fill="#090C10" opacity="1.000000" stroke="none" 
	d="
M84.330315,73.991127 
	C83.977074,73.845840 83.888718,73.688919 83.864265,73.269562 
	C84.383156,73.191643 84.838150,73.376167 85.293152,73.560699 
	C85.060493,73.700287 84.827843,73.839890 84.330315,73.991127 
z"/>
<path fill="#ECEBEC" opacity="1.000000" stroke="none" 
	d="
M68.582146,61.309982 
	C68.510880,61.238136 68.398628,61.146645 68.283203,61.059357 
	C68.275970,61.053894 68.243843,61.081367 68.427040,61.196449 
	C68.630775,61.299385 68.540443,61.291298 68.582146,61.309982 
z"/>
<path fill="#ECEBEC" opacity="1.000000" stroke="none" 
	d="
M54.702839,52.099453 
	C54.872692,52.462833 54.653534,52.690193 54.083912,52.883110 
	C54.045555,52.667961 54.239017,52.372883 54.702839,52.099453 
z"/>
<path fill="#1C1A23" opacity="1.000000" stroke="none" 
	d="
M64.018990,51.282318 
	C64.128670,50.992008 64.302208,50.987255 64.736053,50.988461 
	C65.016724,51.265072 64.954361,51.515057 64.654366,51.861610 
	C64.360603,51.841858 64.221733,51.704865 64.018990,51.282318 
z"/>
<path fill="#777578" opacity="1.000000" stroke="none" 
	d="
M67.041428,53.638958 
	C66.755943,53.845528 66.339706,53.672592 65.696083,53.230961 
	C65.949356,53.061325 66.430023,53.160389 67.041428,53.638958 
z"/>
<path fill="#245B88" opacity="1.000000" stroke="none" 
	d="
M70.940018,182.740234 
	C70.813736,182.983704 70.556870,182.989532 69.912727,182.983582 
	C69.953445,182.815384 70.381439,182.659012 70.940018,182.740234 
z"/>
<path fill="#BFBFBF" opacity="1.000000" stroke="none" 
	d="
M67.233780,58.923889 
	C66.960121,58.909836 66.893661,58.468880 66.938805,58.250587 
	C67.158440,58.334179 67.332939,58.636063 67.233780,58.923889 
z"/>
<path fill="#E6E4E7" opacity="1.000000" stroke="none" 
	d="
M55.001045,70.300735 
	C55.266846,70.067123 55.531887,70.204704 55.870827,70.632172 
	C55.681667,70.738998 55.366856,70.655609 55.001045,70.300735 
z"/>
<path fill="#DFDCE1" opacity="1.000000" stroke="none" 
	d="
M58.994030,64.005714 
	C61.484928,65.108253 63.975822,66.210793 66.513199,67.822655 
	C64.663216,68.561096 62.766762,68.790207 60.870308,69.019325 
	C59.645889,68.122498 58.421471,67.225670 57.062950,65.738647 
	C56.929413,64.779800 56.929974,64.411148 57.274242,64.025848 
	C58.076645,64.008049 58.535336,64.006882 58.994030,64.005714 
z"/>
<path fill="#21262B" opacity="1.000000" stroke="none" 
	d="
M61.188560,69.290237 
	C62.766762,68.790207 64.663216,68.561096 66.765945,68.061111 
	C67.731674,67.422821 68.491119,67.055405 69.528030,66.493118 
	C71.156067,67.675964 72.506630,69.053673 73.861633,70.819824 
	C69.746323,70.659225 65.626564,70.110191 61.188560,69.290237 
z"/>
<path fill="#0D080A" opacity="1.000000" stroke="none" 
	d="
M56.930534,64.042488 
	C56.929974,64.411148 56.929413,64.779800 56.914204,65.432945 
	C56.497742,66.706490 56.095932,67.695549 55.362015,68.770782 
	C55.029907,68.856964 55.047062,68.407524 55.031937,68.183136 
	C55.019955,67.484718 55.023098,67.010704 54.968521,66.185402 
	C54.930084,64.177216 54.949360,62.520313 55.029747,60.451454 
	C55.370068,60.204288 55.649277,60.369076 55.980927,61.101288 
	C56.086781,62.119518 56.140202,62.570320 56.138809,63.283539 
	C56.381996,63.712372 56.680004,63.878792 56.967514,64.020752 
	C56.957016,63.996284 56.930534,64.042488 56.930534,64.042488 
z"/>
<path fill="#21262B" opacity="1.000000" stroke="none" 
	d="
M73.893555,71.364212 
	C74.096085,71.296600 74.414398,71.477432 74.826813,71.925743 
	C74.617050,71.999695 74.313187,71.806168 73.893555,71.364212 
z"/>
<path fill="#0D080A" opacity="1.000000" stroke="none" 
	d="
M64.958710,128.241776 
	C63.674736,126.733780 61.086906,124.839905 61.393856,123.802742 
	C61.936455,121.969307 64.003326,119.907951 65.868416,119.315765 
	C68.231415,118.565483 71.213524,118.620857 73.584404,119.389954 
	C75.598091,120.043167 77.123238,122.202423 78.864540,123.695312 
	C77.159134,125.456818 75.502281,127.270439 73.710594,128.939316 
	C73.314682,129.308105 72.441666,129.164673 71.506050,128.884705 
	C73.421669,124.848640 73.470932,121.909279 68.575089,120.636932 
	C67.365929,123.173119 66.162315,125.707443 64.958710,128.241776 
z"/>
<path fill="#1C1A23" opacity="1.000000" stroke="none" 
	d="
M65.177727,128.494217 
	C66.162315,125.707443 67.365929,123.173119 68.575089,120.636932 
	C73.470932,121.909279 73.421669,124.848640 71.112656,128.843933 
	C69.133293,129.032578 67.265022,128.889618 65.177727,128.494217 
z"/>
<path fill="#010101" opacity="1.000000" stroke="none" 
	d="
M74.204147,106.513954 
	C71.533272,106.891747 68.860252,106.966606 65.763931,106.965073 
	C67.182953,104.670715 69.138260,102.805779 72.644547,104.744537 
	C73.402901,105.285675 73.802452,105.748352 74.204147,106.513954 
z"/>
<path fill="#AAB5D2" opacity="1.000000" stroke="none" 
	d="
M98.503052,105.330505 
	C98.704948,105.043228 98.945610,105.013168 99.602814,105.008102 
	C100.019341,105.033096 100.123711,105.195862 100.123711,105.195862 
	C99.617699,105.785408 99.111687,106.374954 98.288193,106.990433 
	C98.161087,106.540161 98.351463,106.063942 98.503052,105.330505 
z"/>
<path fill="#F4F4F4" opacity="1.000000" stroke="none" 
	d="
M40.345963,105.545746 
	C40.519924,104.660545 40.829952,104.051498 41.139984,103.442451 
	C41.478149,103.697952 41.816319,103.953453 42.154484,104.208954 
	C41.597000,104.746605 41.039516,105.284256 40.345963,105.545746 
z"/>
<path fill="#F4F4F4" opacity="1.000000" stroke="none" 
	d="
M37.662415,105.629990 
	C37.851303,105.487610 38.156979,105.509262 38.462654,105.530914 
	C38.234833,105.618607 38.007015,105.706314 37.662415,105.629990 
z"/>
<path fill="#E6E4E7" opacity="1.000000" stroke="none" 
	d="
M56.193623,63.021126 
	C56.140202,62.570320 56.086781,62.119518 56.091476,61.331898 
	C57.532200,60.532299 58.914806,60.069519 60.896919,59.406071 
	C60.163044,60.970734 59.607082,62.156075 59.022575,63.673561 
	C58.535336,64.006882 58.076645,64.008049 57.274242,64.025848 
	C56.930534,64.042488 56.957016,63.996284 56.892883,63.811188 
	C56.684731,63.353382 56.473022,63.151726 56.193623,63.021126 
z"/>
<path fill="#21262B" opacity="1.000000" stroke="none" 
	d="
M69.805222,64.405548 
	C69.992065,64.644089 70.179413,65.218948 70.107880,65.940895 
	C69.834579,65.639275 69.820145,65.190567 69.805222,64.405548 
z"/>
<path fill="#BFBFBF" opacity="1.000000" stroke="none" 
	d="
M64.463852,59.560204 
	C64.389992,59.465614 64.673111,59.441490 64.673111,59.441490 
	C64.673111,59.441490 64.537704,59.654793 64.463852,59.560204 
z"/>
<path fill="#BFBFBF" opacity="1.000000" stroke="none" 
	d="
M67.537933,61.017883 
	C67.329239,61.124847 67.083328,61.266171 66.837418,61.407494 
	C66.937889,61.255661 67.038361,61.103825 67.357979,60.973999 
	C67.577133,60.996006 67.500710,61.052250 67.537933,61.017883 
z"/>
<path fill="#AAB5D2" opacity="1.000000" stroke="none" 
	d="
M99.962677,104.954758 
	C100.850410,104.548813 101.794800,104.221207 102.739197,103.893600 
	C102.765602,104.347321 102.868263,105.183861 102.806732,105.196121 
	C102.118759,105.333145 101.405457,105.343048 100.411346,105.291534 
	C100.123711,105.195862 100.019341,105.033096 99.962677,104.954758 
z"/>
<path fill="#ECEBEC" opacity="1.000000" stroke="none" 
	d="
M56.138809,63.283539 
	C56.473022,63.151726 56.684731,63.353382 56.903378,63.835651 
	C56.680004,63.878792 56.381996,63.712372 56.138809,63.283539 
z"/>
</svg>